<mxfile host="Electron" modified="2024-05-22T19:15:17.869Z" agent="Mozilla/5.0 (Windows NT 10.0; Win64; x64) AppleWebKit/537.36 (KHTML, like Gecko) draw.io/24.2.5 Chrome/120.0.6099.109 Electron/28.1.0 Safari/537.36" etag="z_HT_-s6dU_aBMiampT6" version="24.2.5" type="device">
  <diagram name="Page-1" id="tZ7mblRSOUBucBDQe2pu">
    <mxGraphModel dx="956" dy="637" grid="1" gridSize="10" guides="1" tooltips="1" connect="1" arrows="1" fold="1" page="1" pageScale="1" pageWidth="827" pageHeight="1169" math="0" shadow="0">
      <root>
        <mxCell id="0" />
        <mxCell id="5HyJmKqG2nleEV9b4dT3-339" value="window" parent="0" />
        <mxCell id="5HyJmKqG2nleEV9b4dT3-343" value="Device detail" style="strokeWidth=1;shadow=0;dashed=0;align=center;html=1;shape=mxgraph.mockup.containers.window;align=left;verticalAlign=top;spacingLeft=8;strokeColor2=#008cff;strokeColor3=#c4c4c4;fontColor=#666666;mainText=;fontSize=17;labelBackgroundColor=none;whiteSpace=wrap;" parent="5HyJmKqG2nleEV9b4dT3-339" vertex="1">
          <mxGeometry x="40" y="40" width="730" height="430" as="geometry" />
        </mxCell>
        <mxCell id="5HyJmKqG2nleEV9b4dT3-345" value="Output" style="rounded=0;whiteSpace=wrap;html=1;" parent="5HyJmKqG2nleEV9b4dT3-339" vertex="1">
          <mxGeometry x="200" y="70" width="80" height="30" as="geometry" />
        </mxCell>
        <mxCell id="5HyJmKqG2nleEV9b4dT3-347" value="" style="rounded=0;whiteSpace=wrap;html=1;" parent="5HyJmKqG2nleEV9b4dT3-339" vertex="1">
          <mxGeometry x="520" y="70" width="250" height="30" as="geometry" />
        </mxCell>
        <mxCell id="NuiNeP1zRbWfMo8bKryX-1" value="Connectors" style="rounded=1;whiteSpace=wrap;html=1;arcSize=50;" vertex="1" parent="5HyJmKqG2nleEV9b4dT3-339">
          <mxGeometry x="50" y="500" width="80" height="20" as="geometry" />
        </mxCell>
        <mxCell id="NuiNeP1zRbWfMo8bKryX-2" value="Inputs" style="rounded=1;whiteSpace=wrap;html=1;arcSize=50;fillColor=#bac8d3;strokeColor=#23445d;glass=0;" vertex="1" parent="5HyJmKqG2nleEV9b4dT3-339">
          <mxGeometry x="144" y="500" width="80" height="20" as="geometry" />
        </mxCell>
        <mxCell id="NuiNeP1zRbWfMo8bKryX-3" value="Outputs" style="rounded=1;whiteSpace=wrap;html=1;arcSize=50;" vertex="1" parent="5HyJmKqG2nleEV9b4dT3-339">
          <mxGeometry x="240" y="500" width="80" height="20" as="geometry" />
        </mxCell>
        <mxCell id="1" parent="0" />
        <mxCell id="5HyJmKqG2nleEV9b4dT3-13" value="" style="group;fillColor=none;shadow=0;" parent="1" vertex="1" connectable="0">
          <mxGeometry x="50" y="100" width="80" height="90" as="geometry" />
        </mxCell>
        <mxCell id="5HyJmKqG2nleEV9b4dT3-1" value="" style="rounded=1;whiteSpace=wrap;html=1;fillColor=#E72D2E;fontColor=#ffffff;strokeColor=#314354;shadow=0;" parent="5HyJmKqG2nleEV9b4dT3-13" vertex="1">
          <mxGeometry y="30" width="80" height="50" as="geometry" />
        </mxCell>
        <mxCell id="5HyJmKqG2nleEV9b4dT3-7" value="Channel 1" style="text;html=1;align=left;verticalAlign=bottom;whiteSpace=wrap;rounded=0;shadow=0;" parent="5HyJmKqG2nleEV9b4dT3-13" vertex="1">
          <mxGeometry width="70" height="30" as="geometry" />
        </mxCell>
        <mxCell id="5HyJmKqG2nleEV9b4dT3-8" value="&lt;font style=&quot;font-size: 8px;&quot;&gt;From AES50 A1&lt;/font&gt;" style="text;html=1;align=center;verticalAlign=middle;whiteSpace=wrap;rounded=0;shadow=0;" parent="5HyJmKqG2nleEV9b4dT3-13" vertex="1">
          <mxGeometry x="10" y="80" width="60" height="10" as="geometry" />
        </mxCell>
        <mxCell id="5HyJmKqG2nleEV9b4dT3-11" value="" style="group;fillColor=none;shadow=0;" parent="5HyJmKqG2nleEV9b4dT3-13" vertex="1" connectable="0">
          <mxGeometry x="64" y="64" width="14" height="14" as="geometry" />
        </mxCell>
        <mxCell id="5HyJmKqG2nleEV9b4dT3-9" value="" style="endArrow=classic;startArrow=classic;html=1;rounded=0;strokeWidth=0.5;endSize=2;startSize=2;strokeColor=#FFFFFF;shadow=0;" parent="5HyJmKqG2nleEV9b4dT3-11" edge="1">
          <mxGeometry width="50" height="50" relative="1" as="geometry">
            <mxPoint x="7" y="14" as="sourcePoint" />
            <mxPoint x="7" as="targetPoint" />
          </mxGeometry>
        </mxCell>
        <mxCell id="5HyJmKqG2nleEV9b4dT3-10" value="" style="endArrow=classic;startArrow=classic;html=1;rounded=0;strokeWidth=0.5;endSize=2;startSize=2;strokeColor=#ffffff;shadow=0;" parent="5HyJmKqG2nleEV9b4dT3-11" edge="1">
          <mxGeometry width="50" height="50" relative="1" as="geometry">
            <mxPoint y="7" as="sourcePoint" />
            <mxPoint x="14" y="7" as="targetPoint" />
          </mxGeometry>
        </mxCell>
        <mxCell id="5HyJmKqG2nleEV9b4dT3-288" value="Text" style="text;html=1;align=left;verticalAlign=middle;whiteSpace=wrap;rounded=0;fontSize=14;spacingLeft=0;fontColor=#FFFFFF;spacing=2;spacingTop=0;shadow=0;" parent="5HyJmKqG2nleEV9b4dT3-13" vertex="1">
          <mxGeometry x="2" y="30" width="60" height="20" as="geometry" />
        </mxCell>
        <mxCell id="5HyJmKqG2nleEV9b4dT3-289" value="" style="shape=image;verticalLabelPosition=bottom;labelBackgroundColor=default;verticalAlign=top;aspect=fixed;imageAspect=0;image=data:image/svg+xml,PHN2ZyB4bWxucz0iaHR0cDovL3d3dy53My5vcmcvMjAwMC9zdmciIHhtbG5zOnhsaW5rPSJodHRwOi8vd3d3LnczLm9yZy8xOTk5L3hsaW5rIiB2ZXJzaW9uPSIxLjEiIHZpZXdCb3g9IjEwIDEwIDQ0IDQ0IiBoZWlnaHQ9IjY0cHgiIHdpZHRoPSI2NHB4Ij4mI3hhOyAgPHN0eWxlPiYjeGE7ICAgIC5zdHJva2UgeyYjeGE7ICAgICAgc3Ryb2tlOiAjMDAwMDAwOyYjeGE7ICAgIH0mI3hhOyAgICAuZmlsbCB7JiN4YTsgICAgICBmaWxsOiAjMDAwMDAwOyYjeGE7ICAgIH0mI3hhOyAgPC9zdHlsZT4mI3hhOyAgPGcgZmlsbD0ibm9uZSIgY2xhc3M9InN0cm9rZSIgc3Ryb2tlLXdpZHRoPSIyIiBpZD0iaWNvbiI+JiN4YTsgICAgPGNpcmNsZSBjeT0iMzIiIGN4PSIzMiIgcj0iMTkiIGZpbGw9Im5vbmUiLz4mI3hhOyAgICA8cmVjdCByeD0iMiIgaGVpZ2h0PSI2IiB3aWR0aD0iMTAiIHk9IjMwIiB4PSIyNyIgZmlsbD0ibm9uZSIvPiYjeGE7ICAgIDxyZWN0IHJ4PSIwLjUiIGhlaWdodD0iNSIgd2lkdGg9IjYiIHk9IjQ3IiB4PSIyOSIgY2xhc3M9ImZpbGwiLz4mI3hhOyAgICA8cmVjdCByeD0iMC41IiBoZWlnaHQ9IjIiIHdpZHRoPSI0IiB5PSIzIiB4PSI2NCIgY2xhc3M9ImZpbGwiIHRyYW5zZm9ybT0icm90YXRlKDQ1KSIvPiYjeGE7ICAgIDxyZWN0IHJ4PSIwLjUiIGhlaWdodD0iMiIgd2lkdGg9IjQiIHk9IjQ4IiB4PSItMjMiIGNsYXNzPSJmaWxsIiB0cmFuc2Zvcm09InJvdGF0ZSgtNDUpIi8+JiN4YTsgICAgPGxpbmUgeTI9IjQ3IiB4Mj0iMzIiIHkxPSIzNiIgeDE9IjMyIiBmaWxsPSJub25lIi8+JiN4YTsgIDwvZz4mI3hhOzwvc3ZnPg==;shadow=0;" parent="5HyJmKqG2nleEV9b4dT3-13" vertex="1">
          <mxGeometry x="3" y="49" width="28" height="28" as="geometry" />
        </mxCell>
        <mxCell id="5HyJmKqG2nleEV9b4dT3-14" value="" style="group;shadow=0;" parent="1" vertex="1" connectable="0">
          <mxGeometry x="140" y="100" width="80" height="90" as="geometry" />
        </mxCell>
        <mxCell id="5HyJmKqG2nleEV9b4dT3-15" value="" style="rounded=1;whiteSpace=wrap;html=1;fillColor=#647687;fontColor=#ffffff;strokeColor=#314354;shadow=0;" parent="5HyJmKqG2nleEV9b4dT3-14" vertex="1">
          <mxGeometry y="30" width="80" height="50" as="geometry" />
        </mxCell>
        <mxCell id="5HyJmKqG2nleEV9b4dT3-16" value="Channel 2" style="text;html=1;align=left;verticalAlign=bottom;whiteSpace=wrap;rounded=0;shadow=0;" parent="5HyJmKqG2nleEV9b4dT3-14" vertex="1">
          <mxGeometry width="70" height="30" as="geometry" />
        </mxCell>
        <mxCell id="5HyJmKqG2nleEV9b4dT3-17" value="&lt;font style=&quot;font-size: 8px;&quot;&gt;From LOCAL1&lt;/font&gt;" style="text;html=1;align=center;verticalAlign=middle;whiteSpace=wrap;rounded=0;shadow=0;" parent="5HyJmKqG2nleEV9b4dT3-14" vertex="1">
          <mxGeometry x="10" y="80" width="60" height="10" as="geometry" />
        </mxCell>
        <mxCell id="5HyJmKqG2nleEV9b4dT3-18" value="" style="group;shadow=0;" parent="5HyJmKqG2nleEV9b4dT3-14" vertex="1" connectable="0">
          <mxGeometry x="64" y="64" width="14" height="14" as="geometry" />
        </mxCell>
        <mxCell id="5HyJmKqG2nleEV9b4dT3-19" value="" style="endArrow=classic;startArrow=classic;html=1;rounded=0;strokeWidth=0.5;endSize=2;startSize=2;strokeColor=#FFFFFF;shadow=0;" parent="5HyJmKqG2nleEV9b4dT3-18" edge="1">
          <mxGeometry width="50" height="50" relative="1" as="geometry">
            <mxPoint x="7" y="14" as="sourcePoint" />
            <mxPoint x="7" as="targetPoint" />
          </mxGeometry>
        </mxCell>
        <mxCell id="5HyJmKqG2nleEV9b4dT3-20" value="" style="endArrow=classic;startArrow=classic;html=1;rounded=0;strokeWidth=0.5;endSize=2;startSize=2;strokeColor=#ffffff;shadow=0;" parent="5HyJmKqG2nleEV9b4dT3-18" edge="1">
          <mxGeometry width="50" height="50" relative="1" as="geometry">
            <mxPoint y="7" as="sourcePoint" />
            <mxPoint x="14" y="7" as="targetPoint" />
          </mxGeometry>
        </mxCell>
        <mxCell id="5HyJmKqG2nleEV9b4dT3-21" value="" style="group;shadow=0;" parent="1" vertex="1" connectable="0">
          <mxGeometry x="230" y="100" width="80" height="90" as="geometry" />
        </mxCell>
        <mxCell id="5HyJmKqG2nleEV9b4dT3-22" value="" style="rounded=1;whiteSpace=wrap;html=1;fillColor=#647687;fontColor=#ffffff;strokeColor=#314354;shadow=0;" parent="5HyJmKqG2nleEV9b4dT3-21" vertex="1">
          <mxGeometry y="30" width="80" height="50" as="geometry" />
        </mxCell>
        <mxCell id="5HyJmKqG2nleEV9b4dT3-23" value="Channel 3" style="text;html=1;align=left;verticalAlign=bottom;whiteSpace=wrap;rounded=0;shadow=0;" parent="5HyJmKqG2nleEV9b4dT3-21" vertex="1">
          <mxGeometry width="70" height="30" as="geometry" />
        </mxCell>
        <mxCell id="5HyJmKqG2nleEV9b4dT3-24" value="&lt;font style=&quot;font-size: 8px;&quot;&gt;From LOCAL1&lt;/font&gt;" style="text;html=1;align=center;verticalAlign=middle;whiteSpace=wrap;rounded=0;shadow=0;" parent="5HyJmKqG2nleEV9b4dT3-21" vertex="1">
          <mxGeometry x="10" y="80" width="60" height="10" as="geometry" />
        </mxCell>
        <mxCell id="5HyJmKqG2nleEV9b4dT3-25" value="" style="group;shadow=0;" parent="5HyJmKqG2nleEV9b4dT3-21" vertex="1" connectable="0">
          <mxGeometry x="64" y="64" width="14" height="14" as="geometry" />
        </mxCell>
        <mxCell id="5HyJmKqG2nleEV9b4dT3-26" value="" style="endArrow=classic;startArrow=classic;html=1;rounded=0;strokeWidth=0.5;endSize=2;startSize=2;strokeColor=#FFFFFF;shadow=0;" parent="5HyJmKqG2nleEV9b4dT3-25" edge="1">
          <mxGeometry width="50" height="50" relative="1" as="geometry">
            <mxPoint x="7" y="14" as="sourcePoint" />
            <mxPoint x="7" as="targetPoint" />
          </mxGeometry>
        </mxCell>
        <mxCell id="5HyJmKqG2nleEV9b4dT3-27" value="" style="endArrow=classic;startArrow=classic;html=1;rounded=0;strokeWidth=0.5;endSize=2;startSize=2;strokeColor=#ffffff;shadow=0;" parent="5HyJmKqG2nleEV9b4dT3-25" edge="1">
          <mxGeometry width="50" height="50" relative="1" as="geometry">
            <mxPoint y="7" as="sourcePoint" />
            <mxPoint x="14" y="7" as="targetPoint" />
          </mxGeometry>
        </mxCell>
        <mxCell id="5HyJmKqG2nleEV9b4dT3-28" value="" style="group;shadow=0;" parent="1" vertex="1" connectable="0">
          <mxGeometry x="320" y="100" width="80" height="90" as="geometry" />
        </mxCell>
        <mxCell id="5HyJmKqG2nleEV9b4dT3-29" value="" style="rounded=1;whiteSpace=wrap;html=1;fillColor=#647687;fontColor=#ffffff;strokeColor=#314354;shadow=0;" parent="5HyJmKqG2nleEV9b4dT3-28" vertex="1">
          <mxGeometry y="30" width="80" height="50" as="geometry" />
        </mxCell>
        <mxCell id="5HyJmKqG2nleEV9b4dT3-30" value="Channel 4" style="text;html=1;align=left;verticalAlign=bottom;whiteSpace=wrap;rounded=0;shadow=0;" parent="5HyJmKqG2nleEV9b4dT3-28" vertex="1">
          <mxGeometry width="70" height="30" as="geometry" />
        </mxCell>
        <mxCell id="5HyJmKqG2nleEV9b4dT3-31" value="&lt;font style=&quot;font-size: 8px;&quot;&gt;From LOCAL1&lt;/font&gt;" style="text;html=1;align=center;verticalAlign=middle;whiteSpace=wrap;rounded=0;shadow=0;" parent="5HyJmKqG2nleEV9b4dT3-28" vertex="1">
          <mxGeometry x="10" y="80" width="60" height="10" as="geometry" />
        </mxCell>
        <mxCell id="5HyJmKqG2nleEV9b4dT3-32" value="" style="group;shadow=0;" parent="5HyJmKqG2nleEV9b4dT3-28" vertex="1" connectable="0">
          <mxGeometry x="64" y="64" width="14" height="14" as="geometry" />
        </mxCell>
        <mxCell id="5HyJmKqG2nleEV9b4dT3-33" value="" style="endArrow=classic;startArrow=classic;html=1;rounded=0;strokeWidth=0.5;endSize=2;startSize=2;strokeColor=#FFFFFF;shadow=0;" parent="5HyJmKqG2nleEV9b4dT3-32" edge="1">
          <mxGeometry width="50" height="50" relative="1" as="geometry">
            <mxPoint x="7" y="14" as="sourcePoint" />
            <mxPoint x="7" as="targetPoint" />
          </mxGeometry>
        </mxCell>
        <mxCell id="5HyJmKqG2nleEV9b4dT3-34" value="" style="endArrow=classic;startArrow=classic;html=1;rounded=0;strokeWidth=0.5;endSize=2;startSize=2;strokeColor=#ffffff;shadow=0;" parent="5HyJmKqG2nleEV9b4dT3-32" edge="1">
          <mxGeometry width="50" height="50" relative="1" as="geometry">
            <mxPoint y="7" as="sourcePoint" />
            <mxPoint x="14" y="7" as="targetPoint" />
          </mxGeometry>
        </mxCell>
        <mxCell id="5HyJmKqG2nleEV9b4dT3-35" value="" style="group;shadow=0;" parent="1" vertex="1" connectable="0">
          <mxGeometry x="410" y="100" width="80" height="90" as="geometry" />
        </mxCell>
        <mxCell id="5HyJmKqG2nleEV9b4dT3-36" value="" style="rounded=1;whiteSpace=wrap;html=1;fillColor=#647687;fontColor=#ffffff;strokeColor=#314354;shadow=0;" parent="5HyJmKqG2nleEV9b4dT3-35" vertex="1">
          <mxGeometry y="30" width="80" height="50" as="geometry" />
        </mxCell>
        <mxCell id="5HyJmKqG2nleEV9b4dT3-37" value="Channel 5" style="text;html=1;align=left;verticalAlign=bottom;whiteSpace=wrap;rounded=0;shadow=0;" parent="5HyJmKqG2nleEV9b4dT3-35" vertex="1">
          <mxGeometry width="70" height="30" as="geometry" />
        </mxCell>
        <mxCell id="5HyJmKqG2nleEV9b4dT3-38" value="&lt;font style=&quot;font-size: 8px;&quot;&gt;From LOCAL1&lt;/font&gt;" style="text;html=1;align=center;verticalAlign=middle;whiteSpace=wrap;rounded=0;shadow=0;" parent="5HyJmKqG2nleEV9b4dT3-35" vertex="1">
          <mxGeometry x="10" y="80" width="60" height="10" as="geometry" />
        </mxCell>
        <mxCell id="5HyJmKqG2nleEV9b4dT3-39" value="" style="group;shadow=0;" parent="5HyJmKqG2nleEV9b4dT3-35" vertex="1" connectable="0">
          <mxGeometry x="64" y="64" width="14" height="14" as="geometry" />
        </mxCell>
        <mxCell id="5HyJmKqG2nleEV9b4dT3-40" value="" style="endArrow=classic;startArrow=classic;html=1;rounded=0;strokeWidth=0.5;endSize=2;startSize=2;strokeColor=#FFFFFF;shadow=0;" parent="5HyJmKqG2nleEV9b4dT3-39" edge="1">
          <mxGeometry width="50" height="50" relative="1" as="geometry">
            <mxPoint x="7" y="14" as="sourcePoint" />
            <mxPoint x="7" as="targetPoint" />
          </mxGeometry>
        </mxCell>
        <mxCell id="5HyJmKqG2nleEV9b4dT3-41" value="" style="endArrow=classic;startArrow=classic;html=1;rounded=0;strokeWidth=0.5;endSize=2;startSize=2;strokeColor=#ffffff;shadow=0;" parent="5HyJmKqG2nleEV9b4dT3-39" edge="1">
          <mxGeometry width="50" height="50" relative="1" as="geometry">
            <mxPoint y="7" as="sourcePoint" />
            <mxPoint x="14" y="7" as="targetPoint" />
          </mxGeometry>
        </mxCell>
        <mxCell id="5HyJmKqG2nleEV9b4dT3-42" value="" style="group;shadow=0;" parent="1" vertex="1" connectable="0">
          <mxGeometry x="500" y="100" width="80" height="90" as="geometry" />
        </mxCell>
        <mxCell id="5HyJmKqG2nleEV9b4dT3-43" value="" style="rounded=1;whiteSpace=wrap;html=1;fillColor=#647687;fontColor=#ffffff;strokeColor=#314354;shadow=0;" parent="5HyJmKqG2nleEV9b4dT3-42" vertex="1">
          <mxGeometry y="30" width="80" height="50" as="geometry" />
        </mxCell>
        <mxCell id="5HyJmKqG2nleEV9b4dT3-44" value="Channel 6" style="text;html=1;align=left;verticalAlign=bottom;whiteSpace=wrap;rounded=0;shadow=0;" parent="5HyJmKqG2nleEV9b4dT3-42" vertex="1">
          <mxGeometry width="70" height="30" as="geometry" />
        </mxCell>
        <mxCell id="5HyJmKqG2nleEV9b4dT3-45" value="&lt;font style=&quot;font-size: 8px;&quot;&gt;From LOCAL1&lt;/font&gt;" style="text;html=1;align=center;verticalAlign=middle;whiteSpace=wrap;rounded=0;shadow=0;" parent="5HyJmKqG2nleEV9b4dT3-42" vertex="1">
          <mxGeometry x="10" y="80" width="60" height="10" as="geometry" />
        </mxCell>
        <mxCell id="5HyJmKqG2nleEV9b4dT3-46" value="" style="group;shadow=0;" parent="5HyJmKqG2nleEV9b4dT3-42" vertex="1" connectable="0">
          <mxGeometry x="64" y="64" width="14" height="14" as="geometry" />
        </mxCell>
        <mxCell id="5HyJmKqG2nleEV9b4dT3-47" value="" style="endArrow=classic;startArrow=classic;html=1;rounded=0;strokeWidth=0.5;endSize=2;startSize=2;strokeColor=#FFFFFF;shadow=0;" parent="5HyJmKqG2nleEV9b4dT3-46" edge="1">
          <mxGeometry width="50" height="50" relative="1" as="geometry">
            <mxPoint x="7" y="14" as="sourcePoint" />
            <mxPoint x="7" as="targetPoint" />
          </mxGeometry>
        </mxCell>
        <mxCell id="5HyJmKqG2nleEV9b4dT3-48" value="" style="endArrow=classic;startArrow=classic;html=1;rounded=0;strokeWidth=0.5;endSize=2;startSize=2;strokeColor=#ffffff;shadow=0;" parent="5HyJmKqG2nleEV9b4dT3-46" edge="1">
          <mxGeometry width="50" height="50" relative="1" as="geometry">
            <mxPoint y="7" as="sourcePoint" />
            <mxPoint x="14" y="7" as="targetPoint" />
          </mxGeometry>
        </mxCell>
        <mxCell id="5HyJmKqG2nleEV9b4dT3-49" value="" style="group;shadow=0;" parent="1" vertex="1" connectable="0">
          <mxGeometry x="590" y="100" width="80" height="90" as="geometry" />
        </mxCell>
        <mxCell id="5HyJmKqG2nleEV9b4dT3-50" value="" style="rounded=1;whiteSpace=wrap;html=1;fillColor=#647687;fontColor=#ffffff;strokeColor=#314354;shadow=0;" parent="5HyJmKqG2nleEV9b4dT3-49" vertex="1">
          <mxGeometry y="30" width="80" height="50" as="geometry" />
        </mxCell>
        <mxCell id="5HyJmKqG2nleEV9b4dT3-51" value="Channel 7" style="text;html=1;align=left;verticalAlign=bottom;whiteSpace=wrap;rounded=0;shadow=0;" parent="5HyJmKqG2nleEV9b4dT3-49" vertex="1">
          <mxGeometry width="70" height="30" as="geometry" />
        </mxCell>
        <mxCell id="5HyJmKqG2nleEV9b4dT3-52" value="&lt;font style=&quot;font-size: 8px;&quot;&gt;From LOCAL1&lt;/font&gt;" style="text;html=1;align=center;verticalAlign=middle;whiteSpace=wrap;rounded=0;shadow=0;" parent="5HyJmKqG2nleEV9b4dT3-49" vertex="1">
          <mxGeometry x="10" y="80" width="60" height="10" as="geometry" />
        </mxCell>
        <mxCell id="5HyJmKqG2nleEV9b4dT3-53" value="" style="group;shadow=0;" parent="5HyJmKqG2nleEV9b4dT3-49" vertex="1" connectable="0">
          <mxGeometry x="64" y="64" width="14" height="14" as="geometry" />
        </mxCell>
        <mxCell id="5HyJmKqG2nleEV9b4dT3-54" value="" style="endArrow=classic;startArrow=classic;html=1;rounded=0;strokeWidth=0.5;endSize=2;startSize=2;strokeColor=#FFFFFF;shadow=0;" parent="5HyJmKqG2nleEV9b4dT3-53" edge="1">
          <mxGeometry width="50" height="50" relative="1" as="geometry">
            <mxPoint x="7" y="14" as="sourcePoint" />
            <mxPoint x="7" as="targetPoint" />
          </mxGeometry>
        </mxCell>
        <mxCell id="5HyJmKqG2nleEV9b4dT3-55" value="" style="endArrow=classic;startArrow=classic;html=1;rounded=0;strokeWidth=0.5;endSize=2;startSize=2;strokeColor=#ffffff;shadow=0;" parent="5HyJmKqG2nleEV9b4dT3-53" edge="1">
          <mxGeometry width="50" height="50" relative="1" as="geometry">
            <mxPoint y="7" as="sourcePoint" />
            <mxPoint x="14" y="7" as="targetPoint" />
          </mxGeometry>
        </mxCell>
        <mxCell id="5HyJmKqG2nleEV9b4dT3-56" value="" style="group;shadow=0;" parent="1" vertex="1" connectable="0">
          <mxGeometry x="680" y="100" width="80" height="90" as="geometry" />
        </mxCell>
        <mxCell id="5HyJmKqG2nleEV9b4dT3-57" value="" style="rounded=1;whiteSpace=wrap;html=1;fillColor=#647687;fontColor=#ffffff;strokeColor=#314354;shadow=0;" parent="5HyJmKqG2nleEV9b4dT3-56" vertex="1">
          <mxGeometry y="30" width="80" height="50" as="geometry" />
        </mxCell>
        <mxCell id="5HyJmKqG2nleEV9b4dT3-58" value="Channel 8" style="text;html=1;align=left;verticalAlign=bottom;whiteSpace=wrap;rounded=0;shadow=0;" parent="5HyJmKqG2nleEV9b4dT3-56" vertex="1">
          <mxGeometry width="70" height="30" as="geometry" />
        </mxCell>
        <mxCell id="5HyJmKqG2nleEV9b4dT3-59" value="&lt;font style=&quot;font-size: 8px;&quot;&gt;From LOCAL1&lt;/font&gt;" style="text;html=1;align=center;verticalAlign=middle;whiteSpace=wrap;rounded=0;shadow=0;" parent="5HyJmKqG2nleEV9b4dT3-56" vertex="1">
          <mxGeometry x="10" y="80" width="60" height="10" as="geometry" />
        </mxCell>
        <mxCell id="5HyJmKqG2nleEV9b4dT3-60" value="" style="group;shadow=0;" parent="5HyJmKqG2nleEV9b4dT3-56" vertex="1" connectable="0">
          <mxGeometry x="64" y="64" width="14" height="14" as="geometry" />
        </mxCell>
        <mxCell id="5HyJmKqG2nleEV9b4dT3-61" value="" style="endArrow=classic;startArrow=classic;html=1;rounded=0;strokeWidth=0.5;endSize=2;startSize=2;strokeColor=#FFFFFF;shadow=0;" parent="5HyJmKqG2nleEV9b4dT3-60" edge="1">
          <mxGeometry width="50" height="50" relative="1" as="geometry">
            <mxPoint x="7" y="14" as="sourcePoint" />
            <mxPoint x="7" as="targetPoint" />
          </mxGeometry>
        </mxCell>
        <mxCell id="5HyJmKqG2nleEV9b4dT3-62" value="" style="endArrow=classic;startArrow=classic;html=1;rounded=0;strokeWidth=0.5;endSize=2;startSize=2;strokeColor=#ffffff;shadow=0;" parent="5HyJmKqG2nleEV9b4dT3-60" edge="1">
          <mxGeometry width="50" height="50" relative="1" as="geometry">
            <mxPoint y="7" as="sourcePoint" />
            <mxPoint x="14" y="7" as="targetPoint" />
          </mxGeometry>
        </mxCell>
        <mxCell id="5HyJmKqG2nleEV9b4dT3-120" value="" style="group;shadow=0;" parent="1" vertex="1" connectable="0">
          <mxGeometry x="50" y="190" width="80" height="90" as="geometry" />
        </mxCell>
        <mxCell id="5HyJmKqG2nleEV9b4dT3-121" value="" style="rounded=1;whiteSpace=wrap;html=1;fillColor=#647687;fontColor=#ffffff;strokeColor=#314354;shadow=0;" parent="5HyJmKqG2nleEV9b4dT3-120" vertex="1">
          <mxGeometry y="30" width="80" height="50" as="geometry" />
        </mxCell>
        <mxCell id="5HyJmKqG2nleEV9b4dT3-122" value="Channel 9" style="text;html=1;align=left;verticalAlign=bottom;whiteSpace=wrap;rounded=0;shadow=0;" parent="5HyJmKqG2nleEV9b4dT3-120" vertex="1">
          <mxGeometry width="70" height="30" as="geometry" />
        </mxCell>
        <mxCell id="5HyJmKqG2nleEV9b4dT3-123" value="&lt;font style=&quot;font-size: 8px;&quot;&gt;From LOCAL1&lt;/font&gt;" style="text;html=1;align=center;verticalAlign=middle;whiteSpace=wrap;rounded=0;shadow=0;" parent="5HyJmKqG2nleEV9b4dT3-120" vertex="1">
          <mxGeometry x="10" y="80" width="60" height="10" as="geometry" />
        </mxCell>
        <mxCell id="5HyJmKqG2nleEV9b4dT3-124" value="" style="group;shadow=0;" parent="5HyJmKqG2nleEV9b4dT3-120" vertex="1" connectable="0">
          <mxGeometry x="64" y="64" width="14" height="14" as="geometry" />
        </mxCell>
        <mxCell id="5HyJmKqG2nleEV9b4dT3-125" value="" style="endArrow=classic;startArrow=classic;html=1;rounded=0;strokeWidth=0.5;endSize=2;startSize=2;strokeColor=#FFFFFF;shadow=0;" parent="5HyJmKqG2nleEV9b4dT3-124" edge="1">
          <mxGeometry width="50" height="50" relative="1" as="geometry">
            <mxPoint x="7" y="14" as="sourcePoint" />
            <mxPoint x="7" as="targetPoint" />
          </mxGeometry>
        </mxCell>
        <mxCell id="5HyJmKqG2nleEV9b4dT3-126" value="" style="endArrow=classic;startArrow=classic;html=1;rounded=0;strokeWidth=0.5;endSize=2;startSize=2;strokeColor=#ffffff;shadow=0;" parent="5HyJmKqG2nleEV9b4dT3-124" edge="1">
          <mxGeometry width="50" height="50" relative="1" as="geometry">
            <mxPoint y="7" as="sourcePoint" />
            <mxPoint x="14" y="7" as="targetPoint" />
          </mxGeometry>
        </mxCell>
        <mxCell id="5HyJmKqG2nleEV9b4dT3-127" value="" style="group;shadow=0;" parent="1" vertex="1" connectable="0">
          <mxGeometry x="140" y="190" width="80" height="90" as="geometry" />
        </mxCell>
        <mxCell id="5HyJmKqG2nleEV9b4dT3-128" value="" style="rounded=1;whiteSpace=wrap;html=1;fillColor=#647687;fontColor=#ffffff;strokeColor=#314354;shadow=0;" parent="5HyJmKqG2nleEV9b4dT3-127" vertex="1">
          <mxGeometry y="30" width="80" height="50" as="geometry" />
        </mxCell>
        <mxCell id="5HyJmKqG2nleEV9b4dT3-129" value="Channel 10" style="text;html=1;align=left;verticalAlign=bottom;whiteSpace=wrap;rounded=0;shadow=0;" parent="5HyJmKqG2nleEV9b4dT3-127" vertex="1">
          <mxGeometry width="70" height="30" as="geometry" />
        </mxCell>
        <mxCell id="5HyJmKqG2nleEV9b4dT3-130" value="&lt;font style=&quot;font-size: 8px;&quot;&gt;From LOCAL1&lt;/font&gt;" style="text;html=1;align=center;verticalAlign=middle;whiteSpace=wrap;rounded=0;shadow=0;" parent="5HyJmKqG2nleEV9b4dT3-127" vertex="1">
          <mxGeometry x="10" y="80" width="60" height="10" as="geometry" />
        </mxCell>
        <mxCell id="5HyJmKqG2nleEV9b4dT3-131" value="" style="group;shadow=0;" parent="5HyJmKqG2nleEV9b4dT3-127" vertex="1" connectable="0">
          <mxGeometry x="64" y="64" width="14" height="14" as="geometry" />
        </mxCell>
        <mxCell id="5HyJmKqG2nleEV9b4dT3-132" value="" style="endArrow=classic;startArrow=classic;html=1;rounded=0;strokeWidth=0.5;endSize=2;startSize=2;strokeColor=#FFFFFF;shadow=0;" parent="5HyJmKqG2nleEV9b4dT3-131" edge="1">
          <mxGeometry width="50" height="50" relative="1" as="geometry">
            <mxPoint x="7" y="14" as="sourcePoint" />
            <mxPoint x="7" as="targetPoint" />
          </mxGeometry>
        </mxCell>
        <mxCell id="5HyJmKqG2nleEV9b4dT3-133" value="" style="endArrow=classic;startArrow=classic;html=1;rounded=0;strokeWidth=0.5;endSize=2;startSize=2;strokeColor=#ffffff;shadow=0;" parent="5HyJmKqG2nleEV9b4dT3-131" edge="1">
          <mxGeometry width="50" height="50" relative="1" as="geometry">
            <mxPoint y="7" as="sourcePoint" />
            <mxPoint x="14" y="7" as="targetPoint" />
          </mxGeometry>
        </mxCell>
        <mxCell id="5HyJmKqG2nleEV9b4dT3-134" value="" style="group;shadow=0;" parent="1" vertex="1" connectable="0">
          <mxGeometry x="230" y="190" width="80" height="90" as="geometry" />
        </mxCell>
        <mxCell id="5HyJmKqG2nleEV9b4dT3-135" value="" style="rounded=1;whiteSpace=wrap;html=1;fillColor=#647687;fontColor=#ffffff;strokeColor=#314354;shadow=0;" parent="5HyJmKqG2nleEV9b4dT3-134" vertex="1">
          <mxGeometry y="30" width="80" height="50" as="geometry" />
        </mxCell>
        <mxCell id="5HyJmKqG2nleEV9b4dT3-136" value="Channel 11" style="text;html=1;align=left;verticalAlign=bottom;whiteSpace=wrap;rounded=0;shadow=0;" parent="5HyJmKqG2nleEV9b4dT3-134" vertex="1">
          <mxGeometry width="70" height="30" as="geometry" />
        </mxCell>
        <mxCell id="5HyJmKqG2nleEV9b4dT3-137" value="&lt;font style=&quot;font-size: 8px;&quot;&gt;From LOCAL1&lt;/font&gt;" style="text;html=1;align=center;verticalAlign=middle;whiteSpace=wrap;rounded=0;shadow=0;" parent="5HyJmKqG2nleEV9b4dT3-134" vertex="1">
          <mxGeometry x="10" y="80" width="60" height="10" as="geometry" />
        </mxCell>
        <mxCell id="5HyJmKqG2nleEV9b4dT3-138" value="" style="group;shadow=0;" parent="5HyJmKqG2nleEV9b4dT3-134" vertex="1" connectable="0">
          <mxGeometry x="64" y="64" width="14" height="14" as="geometry" />
        </mxCell>
        <mxCell id="5HyJmKqG2nleEV9b4dT3-139" value="" style="endArrow=classic;startArrow=classic;html=1;rounded=0;strokeWidth=0.5;endSize=2;startSize=2;strokeColor=#FFFFFF;shadow=0;" parent="5HyJmKqG2nleEV9b4dT3-138" edge="1">
          <mxGeometry width="50" height="50" relative="1" as="geometry">
            <mxPoint x="7" y="14" as="sourcePoint" />
            <mxPoint x="7" as="targetPoint" />
          </mxGeometry>
        </mxCell>
        <mxCell id="5HyJmKqG2nleEV9b4dT3-140" value="" style="endArrow=classic;startArrow=classic;html=1;rounded=0;strokeWidth=0.5;endSize=2;startSize=2;strokeColor=#ffffff;shadow=0;" parent="5HyJmKqG2nleEV9b4dT3-138" edge="1">
          <mxGeometry width="50" height="50" relative="1" as="geometry">
            <mxPoint y="7" as="sourcePoint" />
            <mxPoint x="14" y="7" as="targetPoint" />
          </mxGeometry>
        </mxCell>
        <mxCell id="5HyJmKqG2nleEV9b4dT3-141" value="" style="group;shadow=0;" parent="1" vertex="1" connectable="0">
          <mxGeometry x="320" y="190" width="80" height="90" as="geometry" />
        </mxCell>
        <mxCell id="5HyJmKqG2nleEV9b4dT3-142" value="" style="rounded=1;whiteSpace=wrap;html=1;fillColor=#647687;fontColor=#ffffff;strokeColor=#314354;shadow=0;" parent="5HyJmKqG2nleEV9b4dT3-141" vertex="1">
          <mxGeometry y="30" width="80" height="50" as="geometry" />
        </mxCell>
        <mxCell id="5HyJmKqG2nleEV9b4dT3-143" value="Channel 12" style="text;html=1;align=left;verticalAlign=bottom;whiteSpace=wrap;rounded=0;shadow=0;" parent="5HyJmKqG2nleEV9b4dT3-141" vertex="1">
          <mxGeometry width="70" height="30" as="geometry" />
        </mxCell>
        <mxCell id="5HyJmKqG2nleEV9b4dT3-144" value="&lt;font style=&quot;font-size: 8px;&quot;&gt;From LOCAL1&lt;/font&gt;" style="text;html=1;align=center;verticalAlign=middle;whiteSpace=wrap;rounded=0;shadow=0;" parent="5HyJmKqG2nleEV9b4dT3-141" vertex="1">
          <mxGeometry x="10" y="80" width="60" height="10" as="geometry" />
        </mxCell>
        <mxCell id="5HyJmKqG2nleEV9b4dT3-145" value="" style="group;shadow=0;" parent="5HyJmKqG2nleEV9b4dT3-141" vertex="1" connectable="0">
          <mxGeometry x="64" y="64" width="14" height="14" as="geometry" />
        </mxCell>
        <mxCell id="5HyJmKqG2nleEV9b4dT3-146" value="" style="endArrow=classic;startArrow=classic;html=1;rounded=0;strokeWidth=0.5;endSize=2;startSize=2;strokeColor=#FFFFFF;shadow=0;" parent="5HyJmKqG2nleEV9b4dT3-145" edge="1">
          <mxGeometry width="50" height="50" relative="1" as="geometry">
            <mxPoint x="7" y="14" as="sourcePoint" />
            <mxPoint x="7" as="targetPoint" />
          </mxGeometry>
        </mxCell>
        <mxCell id="5HyJmKqG2nleEV9b4dT3-147" value="" style="endArrow=classic;startArrow=classic;html=1;rounded=0;strokeWidth=0.5;endSize=2;startSize=2;strokeColor=#ffffff;shadow=0;" parent="5HyJmKqG2nleEV9b4dT3-145" edge="1">
          <mxGeometry width="50" height="50" relative="1" as="geometry">
            <mxPoint y="7" as="sourcePoint" />
            <mxPoint x="14" y="7" as="targetPoint" />
          </mxGeometry>
        </mxCell>
        <mxCell id="5HyJmKqG2nleEV9b4dT3-148" value="" style="group;shadow=0;" parent="1" vertex="1" connectable="0">
          <mxGeometry x="410" y="190" width="80" height="90" as="geometry" />
        </mxCell>
        <mxCell id="5HyJmKqG2nleEV9b4dT3-149" value="" style="rounded=1;whiteSpace=wrap;html=1;fillColor=#647687;fontColor=#ffffff;strokeColor=#314354;shadow=0;" parent="5HyJmKqG2nleEV9b4dT3-148" vertex="1">
          <mxGeometry y="30" width="80" height="50" as="geometry" />
        </mxCell>
        <mxCell id="5HyJmKqG2nleEV9b4dT3-150" value="Channel 13" style="text;html=1;align=left;verticalAlign=bottom;whiteSpace=wrap;rounded=0;shadow=0;" parent="5HyJmKqG2nleEV9b4dT3-148" vertex="1">
          <mxGeometry width="70" height="30" as="geometry" />
        </mxCell>
        <mxCell id="5HyJmKqG2nleEV9b4dT3-151" value="&lt;font style=&quot;font-size: 8px;&quot;&gt;From LOCAL1&lt;/font&gt;" style="text;html=1;align=center;verticalAlign=middle;whiteSpace=wrap;rounded=0;shadow=0;" parent="5HyJmKqG2nleEV9b4dT3-148" vertex="1">
          <mxGeometry x="10" y="80" width="60" height="10" as="geometry" />
        </mxCell>
        <mxCell id="5HyJmKqG2nleEV9b4dT3-152" value="" style="group;shadow=0;" parent="5HyJmKqG2nleEV9b4dT3-148" vertex="1" connectable="0">
          <mxGeometry x="64" y="64" width="14" height="14" as="geometry" />
        </mxCell>
        <mxCell id="5HyJmKqG2nleEV9b4dT3-153" value="" style="endArrow=classic;startArrow=classic;html=1;rounded=0;strokeWidth=0.5;endSize=2;startSize=2;strokeColor=#FFFFFF;shadow=0;" parent="5HyJmKqG2nleEV9b4dT3-152" edge="1">
          <mxGeometry width="50" height="50" relative="1" as="geometry">
            <mxPoint x="7" y="14" as="sourcePoint" />
            <mxPoint x="7" as="targetPoint" />
          </mxGeometry>
        </mxCell>
        <mxCell id="5HyJmKqG2nleEV9b4dT3-154" value="" style="endArrow=classic;startArrow=classic;html=1;rounded=0;strokeWidth=0.5;endSize=2;startSize=2;strokeColor=#ffffff;shadow=0;" parent="5HyJmKqG2nleEV9b4dT3-152" edge="1">
          <mxGeometry width="50" height="50" relative="1" as="geometry">
            <mxPoint y="7" as="sourcePoint" />
            <mxPoint x="14" y="7" as="targetPoint" />
          </mxGeometry>
        </mxCell>
        <mxCell id="5HyJmKqG2nleEV9b4dT3-155" value="" style="group;shadow=0;" parent="1" vertex="1" connectable="0">
          <mxGeometry x="500" y="190" width="80" height="90" as="geometry" />
        </mxCell>
        <mxCell id="5HyJmKqG2nleEV9b4dT3-156" value="" style="rounded=1;whiteSpace=wrap;html=1;fillColor=#647687;fontColor=#ffffff;strokeColor=#314354;shadow=0;" parent="5HyJmKqG2nleEV9b4dT3-155" vertex="1">
          <mxGeometry y="30" width="80" height="50" as="geometry" />
        </mxCell>
        <mxCell id="5HyJmKqG2nleEV9b4dT3-157" value="Channel 14" style="text;html=1;align=left;verticalAlign=bottom;whiteSpace=wrap;rounded=0;shadow=0;" parent="5HyJmKqG2nleEV9b4dT3-155" vertex="1">
          <mxGeometry width="70" height="30" as="geometry" />
        </mxCell>
        <mxCell id="5HyJmKqG2nleEV9b4dT3-158" value="&lt;font style=&quot;font-size: 8px;&quot;&gt;From LOCAL1&lt;/font&gt;" style="text;html=1;align=center;verticalAlign=middle;whiteSpace=wrap;rounded=0;shadow=0;" parent="5HyJmKqG2nleEV9b4dT3-155" vertex="1">
          <mxGeometry x="10" y="80" width="60" height="10" as="geometry" />
        </mxCell>
        <mxCell id="5HyJmKqG2nleEV9b4dT3-159" value="" style="group;shadow=0;" parent="5HyJmKqG2nleEV9b4dT3-155" vertex="1" connectable="0">
          <mxGeometry x="64" y="64" width="14" height="14" as="geometry" />
        </mxCell>
        <mxCell id="5HyJmKqG2nleEV9b4dT3-160" value="" style="endArrow=classic;startArrow=classic;html=1;rounded=0;strokeWidth=0.5;endSize=2;startSize=2;strokeColor=#FFFFFF;shadow=0;" parent="5HyJmKqG2nleEV9b4dT3-159" edge="1">
          <mxGeometry width="50" height="50" relative="1" as="geometry">
            <mxPoint x="7" y="14" as="sourcePoint" />
            <mxPoint x="7" as="targetPoint" />
          </mxGeometry>
        </mxCell>
        <mxCell id="5HyJmKqG2nleEV9b4dT3-161" value="" style="endArrow=classic;startArrow=classic;html=1;rounded=0;strokeWidth=0.5;endSize=2;startSize=2;strokeColor=#ffffff;shadow=0;" parent="5HyJmKqG2nleEV9b4dT3-159" edge="1">
          <mxGeometry width="50" height="50" relative="1" as="geometry">
            <mxPoint y="7" as="sourcePoint" />
            <mxPoint x="14" y="7" as="targetPoint" />
          </mxGeometry>
        </mxCell>
        <mxCell id="5HyJmKqG2nleEV9b4dT3-162" value="" style="group;shadow=0;" parent="1" vertex="1" connectable="0">
          <mxGeometry x="590" y="190" width="80" height="90" as="geometry" />
        </mxCell>
        <mxCell id="5HyJmKqG2nleEV9b4dT3-163" value="" style="rounded=1;whiteSpace=wrap;html=1;fillColor=#647687;fontColor=#ffffff;strokeColor=#314354;shadow=0;" parent="5HyJmKqG2nleEV9b4dT3-162" vertex="1">
          <mxGeometry y="30" width="80" height="50" as="geometry" />
        </mxCell>
        <mxCell id="5HyJmKqG2nleEV9b4dT3-164" value="Channel 15" style="text;html=1;align=left;verticalAlign=bottom;whiteSpace=wrap;rounded=0;shadow=0;" parent="5HyJmKqG2nleEV9b4dT3-162" vertex="1">
          <mxGeometry width="70" height="30" as="geometry" />
        </mxCell>
        <mxCell id="5HyJmKqG2nleEV9b4dT3-165" value="&lt;font style=&quot;font-size: 8px;&quot;&gt;From LOCAL1&lt;/font&gt;" style="text;html=1;align=center;verticalAlign=middle;whiteSpace=wrap;rounded=0;shadow=0;" parent="5HyJmKqG2nleEV9b4dT3-162" vertex="1">
          <mxGeometry x="10" y="80" width="60" height="10" as="geometry" />
        </mxCell>
        <mxCell id="5HyJmKqG2nleEV9b4dT3-166" value="" style="group;shadow=0;" parent="5HyJmKqG2nleEV9b4dT3-162" vertex="1" connectable="0">
          <mxGeometry x="64" y="64" width="14" height="14" as="geometry" />
        </mxCell>
        <mxCell id="5HyJmKqG2nleEV9b4dT3-167" value="" style="endArrow=classic;startArrow=classic;html=1;rounded=0;strokeWidth=0.5;endSize=2;startSize=2;strokeColor=#FFFFFF;shadow=0;" parent="5HyJmKqG2nleEV9b4dT3-166" edge="1">
          <mxGeometry width="50" height="50" relative="1" as="geometry">
            <mxPoint x="7" y="14" as="sourcePoint" />
            <mxPoint x="7" as="targetPoint" />
          </mxGeometry>
        </mxCell>
        <mxCell id="5HyJmKqG2nleEV9b4dT3-168" value="" style="endArrow=classic;startArrow=classic;html=1;rounded=0;strokeWidth=0.5;endSize=2;startSize=2;strokeColor=#ffffff;shadow=0;" parent="5HyJmKqG2nleEV9b4dT3-166" edge="1">
          <mxGeometry width="50" height="50" relative="1" as="geometry">
            <mxPoint y="7" as="sourcePoint" />
            <mxPoint x="14" y="7" as="targetPoint" />
          </mxGeometry>
        </mxCell>
        <mxCell id="5HyJmKqG2nleEV9b4dT3-169" value="" style="group;shadow=0;" parent="1" vertex="1" connectable="0">
          <mxGeometry x="680" y="190" width="80" height="90" as="geometry" />
        </mxCell>
        <mxCell id="5HyJmKqG2nleEV9b4dT3-170" value="" style="rounded=1;whiteSpace=wrap;html=1;fillColor=#647687;fontColor=#ffffff;strokeColor=#314354;shadow=0;" parent="5HyJmKqG2nleEV9b4dT3-169" vertex="1">
          <mxGeometry y="30" width="80" height="50" as="geometry" />
        </mxCell>
        <mxCell id="5HyJmKqG2nleEV9b4dT3-171" value="Channel 16" style="text;html=1;align=left;verticalAlign=bottom;whiteSpace=wrap;rounded=0;shadow=0;" parent="5HyJmKqG2nleEV9b4dT3-169" vertex="1">
          <mxGeometry width="70" height="30" as="geometry" />
        </mxCell>
        <mxCell id="5HyJmKqG2nleEV9b4dT3-172" value="&lt;font style=&quot;font-size: 8px;&quot;&gt;From LOCAL1&lt;/font&gt;" style="text;html=1;align=center;verticalAlign=middle;whiteSpace=wrap;rounded=0;shadow=0;" parent="5HyJmKqG2nleEV9b4dT3-169" vertex="1">
          <mxGeometry x="10" y="80" width="60" height="10" as="geometry" />
        </mxCell>
        <mxCell id="5HyJmKqG2nleEV9b4dT3-173" value="" style="group;shadow=0;" parent="5HyJmKqG2nleEV9b4dT3-169" vertex="1" connectable="0">
          <mxGeometry x="64" y="64" width="14" height="14" as="geometry" />
        </mxCell>
        <mxCell id="5HyJmKqG2nleEV9b4dT3-174" value="" style="endArrow=classic;startArrow=classic;html=1;rounded=0;strokeWidth=0.5;endSize=2;startSize=2;strokeColor=#FFFFFF;shadow=0;" parent="5HyJmKqG2nleEV9b4dT3-173" edge="1">
          <mxGeometry width="50" height="50" relative="1" as="geometry">
            <mxPoint x="7" y="14" as="sourcePoint" />
            <mxPoint x="7" as="targetPoint" />
          </mxGeometry>
        </mxCell>
        <mxCell id="5HyJmKqG2nleEV9b4dT3-175" value="" style="endArrow=classic;startArrow=classic;html=1;rounded=0;strokeWidth=0.5;endSize=2;startSize=2;strokeColor=#ffffff;shadow=0;" parent="5HyJmKqG2nleEV9b4dT3-173" edge="1">
          <mxGeometry width="50" height="50" relative="1" as="geometry">
            <mxPoint y="7" as="sourcePoint" />
            <mxPoint x="14" y="7" as="targetPoint" />
          </mxGeometry>
        </mxCell>
        <mxCell id="5HyJmKqG2nleEV9b4dT3-176" value="" style="group;shadow=0;" parent="1" vertex="1" connectable="0">
          <mxGeometry x="50" y="280" width="80" height="90" as="geometry" />
        </mxCell>
        <mxCell id="5HyJmKqG2nleEV9b4dT3-177" value="" style="rounded=1;whiteSpace=wrap;html=1;fillColor=#647687;fontColor=#ffffff;strokeColor=#314354;shadow=0;" parent="5HyJmKqG2nleEV9b4dT3-176" vertex="1">
          <mxGeometry y="30" width="80" height="50" as="geometry" />
        </mxCell>
        <mxCell id="5HyJmKqG2nleEV9b4dT3-178" value="Channel 17" style="text;html=1;align=left;verticalAlign=bottom;whiteSpace=wrap;rounded=0;shadow=0;" parent="5HyJmKqG2nleEV9b4dT3-176" vertex="1">
          <mxGeometry width="70" height="30" as="geometry" />
        </mxCell>
        <mxCell id="5HyJmKqG2nleEV9b4dT3-179" value="&lt;font style=&quot;font-size: 8px;&quot;&gt;From LOCAL1&lt;/font&gt;" style="text;html=1;align=center;verticalAlign=middle;whiteSpace=wrap;rounded=0;shadow=0;" parent="5HyJmKqG2nleEV9b4dT3-176" vertex="1">
          <mxGeometry x="10" y="80" width="60" height="10" as="geometry" />
        </mxCell>
        <mxCell id="5HyJmKqG2nleEV9b4dT3-180" value="" style="group;shadow=0;" parent="5HyJmKqG2nleEV9b4dT3-176" vertex="1" connectable="0">
          <mxGeometry x="64" y="64" width="14" height="14" as="geometry" />
        </mxCell>
        <mxCell id="5HyJmKqG2nleEV9b4dT3-181" value="" style="endArrow=classic;startArrow=classic;html=1;rounded=0;strokeWidth=0.5;endSize=2;startSize=2;strokeColor=#FFFFFF;shadow=0;" parent="5HyJmKqG2nleEV9b4dT3-180" edge="1">
          <mxGeometry width="50" height="50" relative="1" as="geometry">
            <mxPoint x="7" y="14" as="sourcePoint" />
            <mxPoint x="7" as="targetPoint" />
          </mxGeometry>
        </mxCell>
        <mxCell id="5HyJmKqG2nleEV9b4dT3-182" value="" style="endArrow=classic;startArrow=classic;html=1;rounded=0;strokeWidth=0.5;endSize=2;startSize=2;strokeColor=#ffffff;shadow=0;" parent="5HyJmKqG2nleEV9b4dT3-180" edge="1">
          <mxGeometry width="50" height="50" relative="1" as="geometry">
            <mxPoint y="7" as="sourcePoint" />
            <mxPoint x="14" y="7" as="targetPoint" />
          </mxGeometry>
        </mxCell>
        <mxCell id="5HyJmKqG2nleEV9b4dT3-183" value="" style="group;shadow=0;" parent="1" vertex="1" connectable="0">
          <mxGeometry x="140" y="280" width="80" height="90" as="geometry" />
        </mxCell>
        <mxCell id="5HyJmKqG2nleEV9b4dT3-184" value="" style="rounded=1;whiteSpace=wrap;html=1;fillColor=#647687;fontColor=#ffffff;strokeColor=#314354;shadow=0;" parent="5HyJmKqG2nleEV9b4dT3-183" vertex="1">
          <mxGeometry y="30" width="80" height="50" as="geometry" />
        </mxCell>
        <mxCell id="5HyJmKqG2nleEV9b4dT3-185" value="Channel 18" style="text;html=1;align=left;verticalAlign=bottom;whiteSpace=wrap;rounded=0;shadow=0;" parent="5HyJmKqG2nleEV9b4dT3-183" vertex="1">
          <mxGeometry width="70" height="30" as="geometry" />
        </mxCell>
        <mxCell id="5HyJmKqG2nleEV9b4dT3-186" value="&lt;font style=&quot;font-size: 8px;&quot;&gt;From LOCAL1&lt;/font&gt;" style="text;html=1;align=center;verticalAlign=middle;whiteSpace=wrap;rounded=0;shadow=0;" parent="5HyJmKqG2nleEV9b4dT3-183" vertex="1">
          <mxGeometry x="10" y="80" width="60" height="10" as="geometry" />
        </mxCell>
        <mxCell id="5HyJmKqG2nleEV9b4dT3-187" value="" style="group;shadow=0;" parent="5HyJmKqG2nleEV9b4dT3-183" vertex="1" connectable="0">
          <mxGeometry x="64" y="64" width="14" height="14" as="geometry" />
        </mxCell>
        <mxCell id="5HyJmKqG2nleEV9b4dT3-188" value="" style="endArrow=classic;startArrow=classic;html=1;rounded=0;strokeWidth=0.5;endSize=2;startSize=2;strokeColor=#FFFFFF;shadow=0;" parent="5HyJmKqG2nleEV9b4dT3-187" edge="1">
          <mxGeometry width="50" height="50" relative="1" as="geometry">
            <mxPoint x="7" y="14" as="sourcePoint" />
            <mxPoint x="7" as="targetPoint" />
          </mxGeometry>
        </mxCell>
        <mxCell id="5HyJmKqG2nleEV9b4dT3-189" value="" style="endArrow=classic;startArrow=classic;html=1;rounded=0;strokeWidth=0.5;endSize=2;startSize=2;strokeColor=#ffffff;shadow=0;" parent="5HyJmKqG2nleEV9b4dT3-187" edge="1">
          <mxGeometry width="50" height="50" relative="1" as="geometry">
            <mxPoint y="7" as="sourcePoint" />
            <mxPoint x="14" y="7" as="targetPoint" />
          </mxGeometry>
        </mxCell>
        <mxCell id="5HyJmKqG2nleEV9b4dT3-190" value="" style="group;shadow=0;" parent="1" vertex="1" connectable="0">
          <mxGeometry x="230" y="280" width="80" height="90" as="geometry" />
        </mxCell>
        <mxCell id="5HyJmKqG2nleEV9b4dT3-191" value="" style="rounded=1;whiteSpace=wrap;html=1;fillColor=#647687;fontColor=#ffffff;strokeColor=#314354;shadow=0;" parent="5HyJmKqG2nleEV9b4dT3-190" vertex="1">
          <mxGeometry y="30" width="80" height="50" as="geometry" />
        </mxCell>
        <mxCell id="5HyJmKqG2nleEV9b4dT3-192" value="Channel 19" style="text;html=1;align=left;verticalAlign=bottom;whiteSpace=wrap;rounded=0;shadow=0;" parent="5HyJmKqG2nleEV9b4dT3-190" vertex="1">
          <mxGeometry width="70" height="30" as="geometry" />
        </mxCell>
        <mxCell id="5HyJmKqG2nleEV9b4dT3-193" value="&lt;font style=&quot;font-size: 8px;&quot;&gt;From LOCAL1&lt;/font&gt;" style="text;html=1;align=center;verticalAlign=middle;whiteSpace=wrap;rounded=0;shadow=0;" parent="5HyJmKqG2nleEV9b4dT3-190" vertex="1">
          <mxGeometry x="10" y="80" width="60" height="10" as="geometry" />
        </mxCell>
        <mxCell id="5HyJmKqG2nleEV9b4dT3-194" value="" style="group;shadow=0;" parent="5HyJmKqG2nleEV9b4dT3-190" vertex="1" connectable="0">
          <mxGeometry x="64" y="64" width="14" height="14" as="geometry" />
        </mxCell>
        <mxCell id="5HyJmKqG2nleEV9b4dT3-195" value="" style="endArrow=classic;startArrow=classic;html=1;rounded=0;strokeWidth=0.5;endSize=2;startSize=2;strokeColor=#FFFFFF;shadow=0;" parent="5HyJmKqG2nleEV9b4dT3-194" edge="1">
          <mxGeometry width="50" height="50" relative="1" as="geometry">
            <mxPoint x="7" y="14" as="sourcePoint" />
            <mxPoint x="7" as="targetPoint" />
          </mxGeometry>
        </mxCell>
        <mxCell id="5HyJmKqG2nleEV9b4dT3-196" value="" style="endArrow=classic;startArrow=classic;html=1;rounded=0;strokeWidth=0.5;endSize=2;startSize=2;strokeColor=#ffffff;shadow=0;" parent="5HyJmKqG2nleEV9b4dT3-194" edge="1">
          <mxGeometry width="50" height="50" relative="1" as="geometry">
            <mxPoint y="7" as="sourcePoint" />
            <mxPoint x="14" y="7" as="targetPoint" />
          </mxGeometry>
        </mxCell>
        <mxCell id="5HyJmKqG2nleEV9b4dT3-197" value="" style="group;shadow=0;" parent="1" vertex="1" connectable="0">
          <mxGeometry x="320" y="280" width="80" height="90" as="geometry" />
        </mxCell>
        <mxCell id="5HyJmKqG2nleEV9b4dT3-198" value="" style="rounded=1;whiteSpace=wrap;html=1;fillColor=#647687;fontColor=#ffffff;strokeColor=#314354;shadow=0;" parent="5HyJmKqG2nleEV9b4dT3-197" vertex="1">
          <mxGeometry y="30" width="80" height="50" as="geometry" />
        </mxCell>
        <mxCell id="5HyJmKqG2nleEV9b4dT3-199" value="Channel 20" style="text;html=1;align=left;verticalAlign=bottom;whiteSpace=wrap;rounded=0;shadow=0;" parent="5HyJmKqG2nleEV9b4dT3-197" vertex="1">
          <mxGeometry width="70" height="30" as="geometry" />
        </mxCell>
        <mxCell id="5HyJmKqG2nleEV9b4dT3-200" value="&lt;font style=&quot;font-size: 8px;&quot;&gt;From LOCAL1&lt;/font&gt;" style="text;html=1;align=center;verticalAlign=middle;whiteSpace=wrap;rounded=0;shadow=0;" parent="5HyJmKqG2nleEV9b4dT3-197" vertex="1">
          <mxGeometry x="10" y="80" width="60" height="10" as="geometry" />
        </mxCell>
        <mxCell id="5HyJmKqG2nleEV9b4dT3-201" value="" style="group;shadow=0;" parent="5HyJmKqG2nleEV9b4dT3-197" vertex="1" connectable="0">
          <mxGeometry x="64" y="64" width="14" height="14" as="geometry" />
        </mxCell>
        <mxCell id="5HyJmKqG2nleEV9b4dT3-202" value="" style="endArrow=classic;startArrow=classic;html=1;rounded=0;strokeWidth=0.5;endSize=2;startSize=2;strokeColor=#FFFFFF;shadow=0;" parent="5HyJmKqG2nleEV9b4dT3-201" edge="1">
          <mxGeometry width="50" height="50" relative="1" as="geometry">
            <mxPoint x="7" y="14" as="sourcePoint" />
            <mxPoint x="7" as="targetPoint" />
          </mxGeometry>
        </mxCell>
        <mxCell id="5HyJmKqG2nleEV9b4dT3-203" value="" style="endArrow=classic;startArrow=classic;html=1;rounded=0;strokeWidth=0.5;endSize=2;startSize=2;strokeColor=#ffffff;shadow=0;" parent="5HyJmKqG2nleEV9b4dT3-201" edge="1">
          <mxGeometry width="50" height="50" relative="1" as="geometry">
            <mxPoint y="7" as="sourcePoint" />
            <mxPoint x="14" y="7" as="targetPoint" />
          </mxGeometry>
        </mxCell>
        <mxCell id="5HyJmKqG2nleEV9b4dT3-204" value="" style="group;shadow=0;" parent="1" vertex="1" connectable="0">
          <mxGeometry x="410" y="280" width="80" height="90" as="geometry" />
        </mxCell>
        <mxCell id="5HyJmKqG2nleEV9b4dT3-205" value="" style="rounded=1;whiteSpace=wrap;html=1;fillColor=#647687;fontColor=#ffffff;strokeColor=#314354;shadow=0;" parent="5HyJmKqG2nleEV9b4dT3-204" vertex="1">
          <mxGeometry y="30" width="80" height="50" as="geometry" />
        </mxCell>
        <mxCell id="5HyJmKqG2nleEV9b4dT3-206" value="Channel 21" style="text;html=1;align=left;verticalAlign=bottom;whiteSpace=wrap;rounded=0;shadow=0;" parent="5HyJmKqG2nleEV9b4dT3-204" vertex="1">
          <mxGeometry width="70" height="30" as="geometry" />
        </mxCell>
        <mxCell id="5HyJmKqG2nleEV9b4dT3-207" value="&lt;font style=&quot;font-size: 8px;&quot;&gt;From LOCAL1&lt;/font&gt;" style="text;html=1;align=center;verticalAlign=middle;whiteSpace=wrap;rounded=0;shadow=0;" parent="5HyJmKqG2nleEV9b4dT3-204" vertex="1">
          <mxGeometry x="10" y="80" width="60" height="10" as="geometry" />
        </mxCell>
        <mxCell id="5HyJmKqG2nleEV9b4dT3-208" value="" style="group;shadow=0;" parent="5HyJmKqG2nleEV9b4dT3-204" vertex="1" connectable="0">
          <mxGeometry x="64" y="64" width="14" height="14" as="geometry" />
        </mxCell>
        <mxCell id="5HyJmKqG2nleEV9b4dT3-209" value="" style="endArrow=classic;startArrow=classic;html=1;rounded=0;strokeWidth=0.5;endSize=2;startSize=2;strokeColor=#FFFFFF;shadow=0;" parent="5HyJmKqG2nleEV9b4dT3-208" edge="1">
          <mxGeometry width="50" height="50" relative="1" as="geometry">
            <mxPoint x="7" y="14" as="sourcePoint" />
            <mxPoint x="7" as="targetPoint" />
          </mxGeometry>
        </mxCell>
        <mxCell id="5HyJmKqG2nleEV9b4dT3-210" value="" style="endArrow=classic;startArrow=classic;html=1;rounded=0;strokeWidth=0.5;endSize=2;startSize=2;strokeColor=#ffffff;shadow=0;" parent="5HyJmKqG2nleEV9b4dT3-208" edge="1">
          <mxGeometry width="50" height="50" relative="1" as="geometry">
            <mxPoint y="7" as="sourcePoint" />
            <mxPoint x="14" y="7" as="targetPoint" />
          </mxGeometry>
        </mxCell>
        <mxCell id="5HyJmKqG2nleEV9b4dT3-211" value="" style="group;shadow=0;" parent="1" vertex="1" connectable="0">
          <mxGeometry x="500" y="280" width="80" height="90" as="geometry" />
        </mxCell>
        <mxCell id="5HyJmKqG2nleEV9b4dT3-212" value="" style="rounded=1;whiteSpace=wrap;html=1;fillColor=#647687;fontColor=#ffffff;strokeColor=#314354;shadow=0;" parent="5HyJmKqG2nleEV9b4dT3-211" vertex="1">
          <mxGeometry y="30" width="80" height="50" as="geometry" />
        </mxCell>
        <mxCell id="5HyJmKqG2nleEV9b4dT3-213" value="Channel 22" style="text;html=1;align=left;verticalAlign=bottom;whiteSpace=wrap;rounded=0;shadow=0;" parent="5HyJmKqG2nleEV9b4dT3-211" vertex="1">
          <mxGeometry width="70" height="30" as="geometry" />
        </mxCell>
        <mxCell id="5HyJmKqG2nleEV9b4dT3-214" value="&lt;font style=&quot;font-size: 8px;&quot;&gt;From LOCAL1&lt;/font&gt;" style="text;html=1;align=center;verticalAlign=middle;whiteSpace=wrap;rounded=0;shadow=0;" parent="5HyJmKqG2nleEV9b4dT3-211" vertex="1">
          <mxGeometry x="10" y="80" width="60" height="10" as="geometry" />
        </mxCell>
        <mxCell id="5HyJmKqG2nleEV9b4dT3-215" value="" style="group;shadow=0;" parent="5HyJmKqG2nleEV9b4dT3-211" vertex="1" connectable="0">
          <mxGeometry x="64" y="64" width="14" height="14" as="geometry" />
        </mxCell>
        <mxCell id="5HyJmKqG2nleEV9b4dT3-216" value="" style="endArrow=classic;startArrow=classic;html=1;rounded=0;strokeWidth=0.5;endSize=2;startSize=2;strokeColor=#FFFFFF;shadow=0;" parent="5HyJmKqG2nleEV9b4dT3-215" edge="1">
          <mxGeometry width="50" height="50" relative="1" as="geometry">
            <mxPoint x="7" y="14" as="sourcePoint" />
            <mxPoint x="7" as="targetPoint" />
          </mxGeometry>
        </mxCell>
        <mxCell id="5HyJmKqG2nleEV9b4dT3-217" value="" style="endArrow=classic;startArrow=classic;html=1;rounded=0;strokeWidth=0.5;endSize=2;startSize=2;strokeColor=#ffffff;shadow=0;" parent="5HyJmKqG2nleEV9b4dT3-215" edge="1">
          <mxGeometry width="50" height="50" relative="1" as="geometry">
            <mxPoint y="7" as="sourcePoint" />
            <mxPoint x="14" y="7" as="targetPoint" />
          </mxGeometry>
        </mxCell>
        <mxCell id="5HyJmKqG2nleEV9b4dT3-218" value="" style="group;shadow=0;" parent="1" vertex="1" connectable="0">
          <mxGeometry x="590" y="280" width="80" height="90" as="geometry" />
        </mxCell>
        <mxCell id="5HyJmKqG2nleEV9b4dT3-219" value="" style="rounded=1;whiteSpace=wrap;html=1;fillColor=#647687;fontColor=#ffffff;strokeColor=#314354;shadow=0;" parent="5HyJmKqG2nleEV9b4dT3-218" vertex="1">
          <mxGeometry y="30" width="80" height="50" as="geometry" />
        </mxCell>
        <mxCell id="5HyJmKqG2nleEV9b4dT3-220" value="Channel 23" style="text;html=1;align=left;verticalAlign=bottom;whiteSpace=wrap;rounded=0;shadow=0;" parent="5HyJmKqG2nleEV9b4dT3-218" vertex="1">
          <mxGeometry width="70" height="30" as="geometry" />
        </mxCell>
        <mxCell id="5HyJmKqG2nleEV9b4dT3-221" value="&lt;font style=&quot;font-size: 8px;&quot;&gt;From LOCAL1&lt;/font&gt;" style="text;html=1;align=center;verticalAlign=middle;whiteSpace=wrap;rounded=0;shadow=0;" parent="5HyJmKqG2nleEV9b4dT3-218" vertex="1">
          <mxGeometry x="10" y="80" width="60" height="10" as="geometry" />
        </mxCell>
        <mxCell id="5HyJmKqG2nleEV9b4dT3-222" value="" style="group;shadow=0;" parent="5HyJmKqG2nleEV9b4dT3-218" vertex="1" connectable="0">
          <mxGeometry x="64" y="64" width="14" height="14" as="geometry" />
        </mxCell>
        <mxCell id="5HyJmKqG2nleEV9b4dT3-223" value="" style="endArrow=classic;startArrow=classic;html=1;rounded=0;strokeWidth=0.5;endSize=2;startSize=2;strokeColor=#FFFFFF;shadow=0;" parent="5HyJmKqG2nleEV9b4dT3-222" edge="1">
          <mxGeometry width="50" height="50" relative="1" as="geometry">
            <mxPoint x="7" y="14" as="sourcePoint" />
            <mxPoint x="7" as="targetPoint" />
          </mxGeometry>
        </mxCell>
        <mxCell id="5HyJmKqG2nleEV9b4dT3-224" value="" style="endArrow=classic;startArrow=classic;html=1;rounded=0;strokeWidth=0.5;endSize=2;startSize=2;strokeColor=#ffffff;shadow=0;" parent="5HyJmKqG2nleEV9b4dT3-222" edge="1">
          <mxGeometry width="50" height="50" relative="1" as="geometry">
            <mxPoint y="7" as="sourcePoint" />
            <mxPoint x="14" y="7" as="targetPoint" />
          </mxGeometry>
        </mxCell>
        <mxCell id="5HyJmKqG2nleEV9b4dT3-225" value="" style="group;shadow=0;" parent="1" vertex="1" connectable="0">
          <mxGeometry x="680" y="280" width="80" height="90" as="geometry" />
        </mxCell>
        <mxCell id="5HyJmKqG2nleEV9b4dT3-226" value="" style="rounded=1;whiteSpace=wrap;html=1;fillColor=#647687;fontColor=#ffffff;strokeColor=#314354;shadow=0;" parent="5HyJmKqG2nleEV9b4dT3-225" vertex="1">
          <mxGeometry y="30" width="80" height="50" as="geometry" />
        </mxCell>
        <mxCell id="5HyJmKqG2nleEV9b4dT3-227" value="Channel 24" style="text;html=1;align=left;verticalAlign=bottom;whiteSpace=wrap;rounded=0;shadow=0;" parent="5HyJmKqG2nleEV9b4dT3-225" vertex="1">
          <mxGeometry width="70" height="30" as="geometry" />
        </mxCell>
        <mxCell id="5HyJmKqG2nleEV9b4dT3-228" value="&lt;font style=&quot;font-size: 8px;&quot;&gt;From LOCAL1&lt;/font&gt;" style="text;html=1;align=center;verticalAlign=middle;whiteSpace=wrap;rounded=0;shadow=0;" parent="5HyJmKqG2nleEV9b4dT3-225" vertex="1">
          <mxGeometry x="10" y="80" width="60" height="10" as="geometry" />
        </mxCell>
        <mxCell id="5HyJmKqG2nleEV9b4dT3-229" value="" style="group;shadow=0;" parent="5HyJmKqG2nleEV9b4dT3-225" vertex="1" connectable="0">
          <mxGeometry x="64" y="64" width="14" height="14" as="geometry" />
        </mxCell>
        <mxCell id="5HyJmKqG2nleEV9b4dT3-230" value="" style="endArrow=classic;startArrow=classic;html=1;rounded=0;strokeWidth=0.5;endSize=2;startSize=2;strokeColor=#FFFFFF;shadow=0;" parent="5HyJmKqG2nleEV9b4dT3-229" edge="1">
          <mxGeometry width="50" height="50" relative="1" as="geometry">
            <mxPoint x="7" y="14" as="sourcePoint" />
            <mxPoint x="7" as="targetPoint" />
          </mxGeometry>
        </mxCell>
        <mxCell id="5HyJmKqG2nleEV9b4dT3-231" value="" style="endArrow=classic;startArrow=classic;html=1;rounded=0;strokeWidth=0.5;endSize=2;startSize=2;strokeColor=#ffffff;shadow=0;" parent="5HyJmKqG2nleEV9b4dT3-229" edge="1">
          <mxGeometry width="50" height="50" relative="1" as="geometry">
            <mxPoint y="7" as="sourcePoint" />
            <mxPoint x="14" y="7" as="targetPoint" />
          </mxGeometry>
        </mxCell>
        <mxCell id="5HyJmKqG2nleEV9b4dT3-232" value="" style="group;shadow=0;" parent="1" vertex="1" connectable="0">
          <mxGeometry x="50" y="370" width="80" height="90" as="geometry" />
        </mxCell>
        <mxCell id="5HyJmKqG2nleEV9b4dT3-233" value="" style="rounded=1;whiteSpace=wrap;html=1;fillColor=#647687;fontColor=#ffffff;strokeColor=#314354;shadow=0;" parent="5HyJmKqG2nleEV9b4dT3-232" vertex="1">
          <mxGeometry y="30" width="80" height="50" as="geometry" />
        </mxCell>
        <mxCell id="5HyJmKqG2nleEV9b4dT3-234" value="Channel 25" style="text;html=1;align=left;verticalAlign=bottom;whiteSpace=wrap;rounded=0;shadow=0;" parent="5HyJmKqG2nleEV9b4dT3-232" vertex="1">
          <mxGeometry width="70" height="30" as="geometry" />
        </mxCell>
        <mxCell id="5HyJmKqG2nleEV9b4dT3-235" value="&lt;font style=&quot;font-size: 8px;&quot;&gt;From LOCAL1&lt;/font&gt;" style="text;html=1;align=center;verticalAlign=middle;whiteSpace=wrap;rounded=0;shadow=0;" parent="5HyJmKqG2nleEV9b4dT3-232" vertex="1">
          <mxGeometry x="10" y="80" width="60" height="10" as="geometry" />
        </mxCell>
        <mxCell id="5HyJmKqG2nleEV9b4dT3-236" value="" style="group;shadow=0;" parent="5HyJmKqG2nleEV9b4dT3-232" vertex="1" connectable="0">
          <mxGeometry x="64" y="64" width="14" height="14" as="geometry" />
        </mxCell>
        <mxCell id="5HyJmKqG2nleEV9b4dT3-237" value="" style="endArrow=classic;startArrow=classic;html=1;rounded=0;strokeWidth=0.5;endSize=2;startSize=2;strokeColor=#FFFFFF;shadow=0;" parent="5HyJmKqG2nleEV9b4dT3-236" edge="1">
          <mxGeometry width="50" height="50" relative="1" as="geometry">
            <mxPoint x="7" y="14" as="sourcePoint" />
            <mxPoint x="7" as="targetPoint" />
          </mxGeometry>
        </mxCell>
        <mxCell id="5HyJmKqG2nleEV9b4dT3-238" value="" style="endArrow=classic;startArrow=classic;html=1;rounded=0;strokeWidth=0.5;endSize=2;startSize=2;strokeColor=#ffffff;shadow=0;" parent="5HyJmKqG2nleEV9b4dT3-236" edge="1">
          <mxGeometry width="50" height="50" relative="1" as="geometry">
            <mxPoint y="7" as="sourcePoint" />
            <mxPoint x="14" y="7" as="targetPoint" />
          </mxGeometry>
        </mxCell>
        <mxCell id="5HyJmKqG2nleEV9b4dT3-239" value="" style="group;shadow=0;" parent="1" vertex="1" connectable="0">
          <mxGeometry x="140" y="370" width="80" height="90" as="geometry" />
        </mxCell>
        <mxCell id="5HyJmKqG2nleEV9b4dT3-240" value="" style="rounded=1;whiteSpace=wrap;html=1;fillColor=#647687;fontColor=#ffffff;strokeColor=#314354;shadow=0;" parent="5HyJmKqG2nleEV9b4dT3-239" vertex="1">
          <mxGeometry y="30" width="80" height="50" as="geometry" />
        </mxCell>
        <mxCell id="5HyJmKqG2nleEV9b4dT3-241" value="Channel 26" style="text;html=1;align=left;verticalAlign=bottom;whiteSpace=wrap;rounded=0;shadow=0;" parent="5HyJmKqG2nleEV9b4dT3-239" vertex="1">
          <mxGeometry width="70" height="30" as="geometry" />
        </mxCell>
        <mxCell id="5HyJmKqG2nleEV9b4dT3-242" value="&lt;font style=&quot;font-size: 8px;&quot;&gt;From LOCAL1&lt;/font&gt;" style="text;html=1;align=center;verticalAlign=middle;whiteSpace=wrap;rounded=0;shadow=0;" parent="5HyJmKqG2nleEV9b4dT3-239" vertex="1">
          <mxGeometry x="10" y="80" width="60" height="10" as="geometry" />
        </mxCell>
        <mxCell id="5HyJmKqG2nleEV9b4dT3-243" value="" style="group;shadow=0;" parent="5HyJmKqG2nleEV9b4dT3-239" vertex="1" connectable="0">
          <mxGeometry x="64" y="64" width="14" height="14" as="geometry" />
        </mxCell>
        <mxCell id="5HyJmKqG2nleEV9b4dT3-244" value="" style="endArrow=classic;startArrow=classic;html=1;rounded=0;strokeWidth=0.5;endSize=2;startSize=2;strokeColor=#FFFFFF;shadow=0;" parent="5HyJmKqG2nleEV9b4dT3-243" edge="1">
          <mxGeometry width="50" height="50" relative="1" as="geometry">
            <mxPoint x="7" y="14" as="sourcePoint" />
            <mxPoint x="7" as="targetPoint" />
          </mxGeometry>
        </mxCell>
        <mxCell id="5HyJmKqG2nleEV9b4dT3-245" value="" style="endArrow=classic;startArrow=classic;html=1;rounded=0;strokeWidth=0.5;endSize=2;startSize=2;strokeColor=#ffffff;shadow=0;" parent="5HyJmKqG2nleEV9b4dT3-243" edge="1">
          <mxGeometry width="50" height="50" relative="1" as="geometry">
            <mxPoint y="7" as="sourcePoint" />
            <mxPoint x="14" y="7" as="targetPoint" />
          </mxGeometry>
        </mxCell>
        <mxCell id="5HyJmKqG2nleEV9b4dT3-246" value="" style="group;shadow=0;" parent="1" vertex="1" connectable="0">
          <mxGeometry x="230" y="370" width="80" height="90" as="geometry" />
        </mxCell>
        <mxCell id="5HyJmKqG2nleEV9b4dT3-247" value="" style="rounded=1;whiteSpace=wrap;html=1;fillColor=#647687;fontColor=#ffffff;strokeColor=#314354;shadow=0;" parent="5HyJmKqG2nleEV9b4dT3-246" vertex="1">
          <mxGeometry y="30" width="80" height="50" as="geometry" />
        </mxCell>
        <mxCell id="5HyJmKqG2nleEV9b4dT3-248" value="Channel 27" style="text;html=1;align=left;verticalAlign=bottom;whiteSpace=wrap;rounded=0;shadow=0;" parent="5HyJmKqG2nleEV9b4dT3-246" vertex="1">
          <mxGeometry width="70" height="30" as="geometry" />
        </mxCell>
        <mxCell id="5HyJmKqG2nleEV9b4dT3-249" value="&lt;font style=&quot;font-size: 8px;&quot;&gt;From LOCAL1&lt;/font&gt;" style="text;html=1;align=center;verticalAlign=middle;whiteSpace=wrap;rounded=0;shadow=0;" parent="5HyJmKqG2nleEV9b4dT3-246" vertex="1">
          <mxGeometry x="10" y="80" width="60" height="10" as="geometry" />
        </mxCell>
        <mxCell id="5HyJmKqG2nleEV9b4dT3-250" value="" style="group;shadow=0;" parent="5HyJmKqG2nleEV9b4dT3-246" vertex="1" connectable="0">
          <mxGeometry x="64" y="64" width="14" height="14" as="geometry" />
        </mxCell>
        <mxCell id="5HyJmKqG2nleEV9b4dT3-251" value="" style="endArrow=classic;startArrow=classic;html=1;rounded=0;strokeWidth=0.5;endSize=2;startSize=2;strokeColor=#FFFFFF;shadow=0;" parent="5HyJmKqG2nleEV9b4dT3-250" edge="1">
          <mxGeometry width="50" height="50" relative="1" as="geometry">
            <mxPoint x="7" y="14" as="sourcePoint" />
            <mxPoint x="7" as="targetPoint" />
          </mxGeometry>
        </mxCell>
        <mxCell id="5HyJmKqG2nleEV9b4dT3-252" value="" style="endArrow=classic;startArrow=classic;html=1;rounded=0;strokeWidth=0.5;endSize=2;startSize=2;strokeColor=#ffffff;shadow=0;" parent="5HyJmKqG2nleEV9b4dT3-250" edge="1">
          <mxGeometry width="50" height="50" relative="1" as="geometry">
            <mxPoint y="7" as="sourcePoint" />
            <mxPoint x="14" y="7" as="targetPoint" />
          </mxGeometry>
        </mxCell>
        <mxCell id="5HyJmKqG2nleEV9b4dT3-253" value="" style="group;shadow=0;" parent="1" vertex="1" connectable="0">
          <mxGeometry x="320" y="370" width="80" height="90" as="geometry" />
        </mxCell>
        <mxCell id="5HyJmKqG2nleEV9b4dT3-254" value="" style="rounded=1;whiteSpace=wrap;html=1;fillColor=#647687;fontColor=#ffffff;strokeColor=#314354;shadow=0;" parent="5HyJmKqG2nleEV9b4dT3-253" vertex="1">
          <mxGeometry y="30" width="80" height="50" as="geometry" />
        </mxCell>
        <mxCell id="5HyJmKqG2nleEV9b4dT3-255" value="Channel 28" style="text;html=1;align=left;verticalAlign=bottom;whiteSpace=wrap;rounded=0;shadow=0;" parent="5HyJmKqG2nleEV9b4dT3-253" vertex="1">
          <mxGeometry width="70" height="30" as="geometry" />
        </mxCell>
        <mxCell id="5HyJmKqG2nleEV9b4dT3-256" value="&lt;font style=&quot;font-size: 8px;&quot;&gt;From LOCAL1&lt;/font&gt;" style="text;html=1;align=center;verticalAlign=middle;whiteSpace=wrap;rounded=0;shadow=0;" parent="5HyJmKqG2nleEV9b4dT3-253" vertex="1">
          <mxGeometry x="10" y="80" width="60" height="10" as="geometry" />
        </mxCell>
        <mxCell id="5HyJmKqG2nleEV9b4dT3-257" value="" style="group;shadow=0;" parent="5HyJmKqG2nleEV9b4dT3-253" vertex="1" connectable="0">
          <mxGeometry x="64" y="64" width="14" height="14" as="geometry" />
        </mxCell>
        <mxCell id="5HyJmKqG2nleEV9b4dT3-258" value="" style="endArrow=classic;startArrow=classic;html=1;rounded=0;strokeWidth=0.5;endSize=2;startSize=2;strokeColor=#FFFFFF;shadow=0;" parent="5HyJmKqG2nleEV9b4dT3-257" edge="1">
          <mxGeometry width="50" height="50" relative="1" as="geometry">
            <mxPoint x="7" y="14" as="sourcePoint" />
            <mxPoint x="7" as="targetPoint" />
          </mxGeometry>
        </mxCell>
        <mxCell id="5HyJmKqG2nleEV9b4dT3-259" value="" style="endArrow=classic;startArrow=classic;html=1;rounded=0;strokeWidth=0.5;endSize=2;startSize=2;strokeColor=#ffffff;shadow=0;" parent="5HyJmKqG2nleEV9b4dT3-257" edge="1">
          <mxGeometry width="50" height="50" relative="1" as="geometry">
            <mxPoint y="7" as="sourcePoint" />
            <mxPoint x="14" y="7" as="targetPoint" />
          </mxGeometry>
        </mxCell>
        <mxCell id="5HyJmKqG2nleEV9b4dT3-260" value="" style="group;shadow=0;" parent="1" vertex="1" connectable="0">
          <mxGeometry x="410" y="370" width="80" height="90" as="geometry" />
        </mxCell>
        <mxCell id="5HyJmKqG2nleEV9b4dT3-261" value="" style="rounded=1;whiteSpace=wrap;html=1;fillColor=#647687;fontColor=#ffffff;strokeColor=#314354;shadow=0;" parent="5HyJmKqG2nleEV9b4dT3-260" vertex="1">
          <mxGeometry y="30" width="80" height="50" as="geometry" />
        </mxCell>
        <mxCell id="5HyJmKqG2nleEV9b4dT3-262" value="Channel 29" style="text;html=1;align=left;verticalAlign=bottom;whiteSpace=wrap;rounded=0;shadow=0;" parent="5HyJmKqG2nleEV9b4dT3-260" vertex="1">
          <mxGeometry width="70" height="30" as="geometry" />
        </mxCell>
        <mxCell id="5HyJmKqG2nleEV9b4dT3-263" value="&lt;font style=&quot;font-size: 8px;&quot;&gt;From LOCAL1&lt;/font&gt;" style="text;html=1;align=center;verticalAlign=middle;whiteSpace=wrap;rounded=0;shadow=0;" parent="5HyJmKqG2nleEV9b4dT3-260" vertex="1">
          <mxGeometry x="10" y="80" width="60" height="10" as="geometry" />
        </mxCell>
        <mxCell id="5HyJmKqG2nleEV9b4dT3-264" value="" style="group;shadow=0;" parent="5HyJmKqG2nleEV9b4dT3-260" vertex="1" connectable="0">
          <mxGeometry x="64" y="64" width="14" height="14" as="geometry" />
        </mxCell>
        <mxCell id="5HyJmKqG2nleEV9b4dT3-265" value="" style="endArrow=classic;startArrow=classic;html=1;rounded=0;strokeWidth=0.5;endSize=2;startSize=2;strokeColor=#FFFFFF;shadow=0;" parent="5HyJmKqG2nleEV9b4dT3-264" edge="1">
          <mxGeometry width="50" height="50" relative="1" as="geometry">
            <mxPoint x="7" y="14" as="sourcePoint" />
            <mxPoint x="7" as="targetPoint" />
          </mxGeometry>
        </mxCell>
        <mxCell id="5HyJmKqG2nleEV9b4dT3-266" value="" style="endArrow=classic;startArrow=classic;html=1;rounded=0;strokeWidth=0.5;endSize=2;startSize=2;strokeColor=#ffffff;shadow=0;" parent="5HyJmKqG2nleEV9b4dT3-264" edge="1">
          <mxGeometry width="50" height="50" relative="1" as="geometry">
            <mxPoint y="7" as="sourcePoint" />
            <mxPoint x="14" y="7" as="targetPoint" />
          </mxGeometry>
        </mxCell>
        <mxCell id="5HyJmKqG2nleEV9b4dT3-267" value="" style="group;shadow=0;" parent="1" vertex="1" connectable="0">
          <mxGeometry x="500" y="370" width="80" height="90" as="geometry" />
        </mxCell>
        <mxCell id="5HyJmKqG2nleEV9b4dT3-268" value="" style="rounded=1;whiteSpace=wrap;html=1;fillColor=#647687;fontColor=#ffffff;strokeColor=#314354;shadow=0;" parent="5HyJmKqG2nleEV9b4dT3-267" vertex="1">
          <mxGeometry y="30" width="80" height="50" as="geometry" />
        </mxCell>
        <mxCell id="5HyJmKqG2nleEV9b4dT3-269" value="Channel 30" style="text;html=1;align=left;verticalAlign=bottom;whiteSpace=wrap;rounded=0;shadow=0;" parent="5HyJmKqG2nleEV9b4dT3-267" vertex="1">
          <mxGeometry width="70" height="30" as="geometry" />
        </mxCell>
        <mxCell id="5HyJmKqG2nleEV9b4dT3-270" value="&lt;font style=&quot;font-size: 8px;&quot;&gt;From LOCAL1&lt;/font&gt;" style="text;html=1;align=center;verticalAlign=middle;whiteSpace=wrap;rounded=0;shadow=0;" parent="5HyJmKqG2nleEV9b4dT3-267" vertex="1">
          <mxGeometry x="10" y="80" width="60" height="10" as="geometry" />
        </mxCell>
        <mxCell id="5HyJmKqG2nleEV9b4dT3-271" value="" style="group;shadow=0;" parent="5HyJmKqG2nleEV9b4dT3-267" vertex="1" connectable="0">
          <mxGeometry x="64" y="64" width="14" height="14" as="geometry" />
        </mxCell>
        <mxCell id="5HyJmKqG2nleEV9b4dT3-272" value="" style="endArrow=classic;startArrow=classic;html=1;rounded=0;strokeWidth=0.5;endSize=2;startSize=2;strokeColor=#FFFFFF;shadow=0;" parent="5HyJmKqG2nleEV9b4dT3-271" edge="1">
          <mxGeometry width="50" height="50" relative="1" as="geometry">
            <mxPoint x="7" y="14" as="sourcePoint" />
            <mxPoint x="7" as="targetPoint" />
          </mxGeometry>
        </mxCell>
        <mxCell id="5HyJmKqG2nleEV9b4dT3-273" value="" style="endArrow=classic;startArrow=classic;html=1;rounded=0;strokeWidth=0.5;endSize=2;startSize=2;strokeColor=#ffffff;shadow=0;" parent="5HyJmKqG2nleEV9b4dT3-271" edge="1">
          <mxGeometry width="50" height="50" relative="1" as="geometry">
            <mxPoint y="7" as="sourcePoint" />
            <mxPoint x="14" y="7" as="targetPoint" />
          </mxGeometry>
        </mxCell>
        <mxCell id="5HyJmKqG2nleEV9b4dT3-274" value="" style="group;shadow=0;" parent="1" vertex="1" connectable="0">
          <mxGeometry x="590" y="370" width="80" height="90" as="geometry" />
        </mxCell>
        <mxCell id="5HyJmKqG2nleEV9b4dT3-275" value="" style="rounded=1;whiteSpace=wrap;html=1;fillColor=#647687;fontColor=#ffffff;strokeColor=#314354;shadow=0;" parent="5HyJmKqG2nleEV9b4dT3-274" vertex="1">
          <mxGeometry y="30" width="80" height="50" as="geometry" />
        </mxCell>
        <mxCell id="5HyJmKqG2nleEV9b4dT3-276" value="Channel 31" style="text;html=1;align=left;verticalAlign=bottom;whiteSpace=wrap;rounded=0;shadow=0;" parent="5HyJmKqG2nleEV9b4dT3-274" vertex="1">
          <mxGeometry width="70" height="30" as="geometry" />
        </mxCell>
        <mxCell id="5HyJmKqG2nleEV9b4dT3-277" value="&lt;font style=&quot;font-size: 8px;&quot;&gt;From LOCAL1&lt;/font&gt;" style="text;html=1;align=center;verticalAlign=middle;whiteSpace=wrap;rounded=0;shadow=0;" parent="5HyJmKqG2nleEV9b4dT3-274" vertex="1">
          <mxGeometry x="10" y="80" width="60" height="10" as="geometry" />
        </mxCell>
        <mxCell id="5HyJmKqG2nleEV9b4dT3-278" value="" style="group;shadow=0;" parent="5HyJmKqG2nleEV9b4dT3-274" vertex="1" connectable="0">
          <mxGeometry x="64" y="64" width="14" height="14" as="geometry" />
        </mxCell>
        <mxCell id="5HyJmKqG2nleEV9b4dT3-279" value="" style="endArrow=classic;startArrow=classic;html=1;rounded=0;strokeWidth=0.5;endSize=2;startSize=2;strokeColor=#FFFFFF;shadow=0;" parent="5HyJmKqG2nleEV9b4dT3-278" edge="1">
          <mxGeometry width="50" height="50" relative="1" as="geometry">
            <mxPoint x="7" y="14" as="sourcePoint" />
            <mxPoint x="7" as="targetPoint" />
          </mxGeometry>
        </mxCell>
        <mxCell id="5HyJmKqG2nleEV9b4dT3-280" value="" style="endArrow=classic;startArrow=classic;html=1;rounded=0;strokeWidth=0.5;endSize=2;startSize=2;strokeColor=#ffffff;shadow=0;" parent="5HyJmKqG2nleEV9b4dT3-278" edge="1">
          <mxGeometry width="50" height="50" relative="1" as="geometry">
            <mxPoint y="7" as="sourcePoint" />
            <mxPoint x="14" y="7" as="targetPoint" />
          </mxGeometry>
        </mxCell>
        <mxCell id="5HyJmKqG2nleEV9b4dT3-281" value="" style="group;shadow=0;" parent="1" vertex="1" connectable="0">
          <mxGeometry x="680" y="370" width="80" height="90" as="geometry" />
        </mxCell>
        <mxCell id="5HyJmKqG2nleEV9b4dT3-282" value="" style="rounded=1;whiteSpace=wrap;html=1;fillColor=#647687;fontColor=#ffffff;strokeColor=#314354;shadow=0;" parent="5HyJmKqG2nleEV9b4dT3-281" vertex="1">
          <mxGeometry y="30" width="80" height="50" as="geometry" />
        </mxCell>
        <mxCell id="5HyJmKqG2nleEV9b4dT3-283" value="Channel 32" style="text;html=1;align=left;verticalAlign=bottom;whiteSpace=wrap;rounded=0;shadow=0;" parent="5HyJmKqG2nleEV9b4dT3-281" vertex="1">
          <mxGeometry width="70" height="30" as="geometry" />
        </mxCell>
        <mxCell id="5HyJmKqG2nleEV9b4dT3-284" value="&lt;font style=&quot;font-size: 8px;&quot;&gt;From LOCAL1&lt;/font&gt;" style="text;html=1;align=center;verticalAlign=middle;whiteSpace=wrap;rounded=0;shadow=0;" parent="5HyJmKqG2nleEV9b4dT3-281" vertex="1">
          <mxGeometry x="10" y="80" width="60" height="10" as="geometry" />
        </mxCell>
        <mxCell id="5HyJmKqG2nleEV9b4dT3-285" value="" style="group;shadow=0;" parent="5HyJmKqG2nleEV9b4dT3-281" vertex="1" connectable="0">
          <mxGeometry x="64" y="64" width="14" height="14" as="geometry" />
        </mxCell>
        <mxCell id="5HyJmKqG2nleEV9b4dT3-286" value="" style="endArrow=classic;startArrow=classic;html=1;rounded=0;strokeWidth=0.5;endSize=2;startSize=2;strokeColor=#FFFFFF;shadow=0;" parent="5HyJmKqG2nleEV9b4dT3-285" edge="1">
          <mxGeometry width="50" height="50" relative="1" as="geometry">
            <mxPoint x="7" y="14" as="sourcePoint" />
            <mxPoint x="7" as="targetPoint" />
          </mxGeometry>
        </mxCell>
        <mxCell id="5HyJmKqG2nleEV9b4dT3-287" value="" style="endArrow=classic;startArrow=classic;html=1;rounded=0;strokeWidth=0.5;endSize=2;startSize=2;strokeColor=#ffffff;shadow=0;" parent="5HyJmKqG2nleEV9b4dT3-285" edge="1">
          <mxGeometry width="50" height="50" relative="1" as="geometry">
            <mxPoint y="7" as="sourcePoint" />
            <mxPoint x="14" y="7" as="targetPoint" />
          </mxGeometry>
        </mxCell>
        <mxCell id="5HyJmKqG2nleEV9b4dT3-292" value="Untitled Layer" parent="0" />
        <mxCell id="5HyJmKqG2nleEV9b4dT3-293" value="" style="sketch=0;pointerEvents=1;shadow=0;dashed=0;html=1;strokeColor=none;fillColor=#FFFFFF;labelPosition=center;verticalLabelPosition=bottom;verticalAlign=top;outlineConnect=0;align=center;shape=mxgraph.office.concepts.writing_pencil;" parent="5HyJmKqG2nleEV9b4dT3-292" vertex="1">
          <mxGeometry x="205" y="135" width="10" height="10" as="geometry" />
        </mxCell>
        <mxCell id="5HyJmKqG2nleEV9b4dT3-295" value="" style="sketch=0;pointerEvents=1;shadow=0;dashed=0;html=1;strokeColor=none;fillColor=#FFFFFF;labelPosition=center;verticalLabelPosition=bottom;verticalAlign=top;outlineConnect=0;align=center;shape=mxgraph.office.concepts.writing_pencil;" parent="5HyJmKqG2nleEV9b4dT3-292" vertex="1">
          <mxGeometry x="115" y="135" width="10" height="10" as="geometry" />
        </mxCell>
        <mxCell id="5HyJmKqG2nleEV9b4dT3-296" value="" style="sketch=0;pointerEvents=1;shadow=0;dashed=0;html=1;strokeColor=none;fillColor=#FFFFFF;labelPosition=center;verticalLabelPosition=bottom;verticalAlign=top;outlineConnect=0;align=center;shape=mxgraph.office.concepts.writing_pencil;" parent="5HyJmKqG2nleEV9b4dT3-292" vertex="1">
          <mxGeometry x="385" y="135" width="10" height="10" as="geometry" />
        </mxCell>
        <mxCell id="5HyJmKqG2nleEV9b4dT3-297" value="" style="sketch=0;pointerEvents=1;shadow=0;dashed=0;html=1;strokeColor=none;fillColor=#FFFFFF;labelPosition=center;verticalLabelPosition=bottom;verticalAlign=top;outlineConnect=0;align=center;shape=mxgraph.office.concepts.writing_pencil;" parent="5HyJmKqG2nleEV9b4dT3-292" vertex="1">
          <mxGeometry x="295" y="135" width="10" height="10" as="geometry" />
        </mxCell>
        <mxCell id="5HyJmKqG2nleEV9b4dT3-298" value="" style="sketch=0;pointerEvents=1;shadow=0;dashed=0;html=1;strokeColor=none;fillColor=#FFFFFF;labelPosition=center;verticalLabelPosition=bottom;verticalAlign=top;outlineConnect=0;align=center;shape=mxgraph.office.concepts.writing_pencil;" parent="5HyJmKqG2nleEV9b4dT3-292" vertex="1">
          <mxGeometry x="565" y="135" width="10" height="10" as="geometry" />
        </mxCell>
        <mxCell id="5HyJmKqG2nleEV9b4dT3-299" value="" style="sketch=0;pointerEvents=1;shadow=0;dashed=0;html=1;strokeColor=none;fillColor=#FFFFFF;labelPosition=center;verticalLabelPosition=bottom;verticalAlign=top;outlineConnect=0;align=center;shape=mxgraph.office.concepts.writing_pencil;" parent="5HyJmKqG2nleEV9b4dT3-292" vertex="1">
          <mxGeometry x="475" y="135" width="10" height="10" as="geometry" />
        </mxCell>
        <mxCell id="5HyJmKqG2nleEV9b4dT3-300" value="" style="sketch=0;pointerEvents=1;shadow=0;dashed=0;html=1;strokeColor=none;fillColor=#FFFFFF;labelPosition=center;verticalLabelPosition=bottom;verticalAlign=top;outlineConnect=0;align=center;shape=mxgraph.office.concepts.writing_pencil;" parent="5HyJmKqG2nleEV9b4dT3-292" vertex="1">
          <mxGeometry x="745" y="135" width="10" height="10" as="geometry" />
        </mxCell>
        <mxCell id="5HyJmKqG2nleEV9b4dT3-301" value="" style="sketch=0;pointerEvents=1;shadow=0;dashed=0;html=1;strokeColor=none;fillColor=#FFFFFF;labelPosition=center;verticalLabelPosition=bottom;verticalAlign=top;outlineConnect=0;align=center;shape=mxgraph.office.concepts.writing_pencil;" parent="5HyJmKqG2nleEV9b4dT3-292" vertex="1">
          <mxGeometry x="655" y="135" width="10" height="10" as="geometry" />
        </mxCell>
        <mxCell id="5HyJmKqG2nleEV9b4dT3-302" value="" style="sketch=0;pointerEvents=1;shadow=0;dashed=0;html=1;strokeColor=none;fillColor=#FFFFFF;labelPosition=center;verticalLabelPosition=bottom;verticalAlign=top;outlineConnect=0;align=center;shape=mxgraph.office.concepts.writing_pencil;" parent="5HyJmKqG2nleEV9b4dT3-292" vertex="1">
          <mxGeometry x="205" y="225" width="10" height="10" as="geometry" />
        </mxCell>
        <mxCell id="5HyJmKqG2nleEV9b4dT3-303" value="" style="sketch=0;pointerEvents=1;shadow=0;dashed=0;html=1;strokeColor=none;fillColor=#FFFFFF;labelPosition=center;verticalLabelPosition=bottom;verticalAlign=top;outlineConnect=0;align=center;shape=mxgraph.office.concepts.writing_pencil;" parent="5HyJmKqG2nleEV9b4dT3-292" vertex="1">
          <mxGeometry x="115" y="225" width="10" height="10" as="geometry" />
        </mxCell>
        <mxCell id="5HyJmKqG2nleEV9b4dT3-304" value="" style="sketch=0;pointerEvents=1;shadow=0;dashed=0;html=1;strokeColor=none;fillColor=#FFFFFF;labelPosition=center;verticalLabelPosition=bottom;verticalAlign=top;outlineConnect=0;align=center;shape=mxgraph.office.concepts.writing_pencil;" parent="5HyJmKqG2nleEV9b4dT3-292" vertex="1">
          <mxGeometry x="385" y="225" width="10" height="10" as="geometry" />
        </mxCell>
        <mxCell id="5HyJmKqG2nleEV9b4dT3-305" value="" style="sketch=0;pointerEvents=1;shadow=0;dashed=0;html=1;strokeColor=none;fillColor=#FFFFFF;labelPosition=center;verticalLabelPosition=bottom;verticalAlign=top;outlineConnect=0;align=center;shape=mxgraph.office.concepts.writing_pencil;" parent="5HyJmKqG2nleEV9b4dT3-292" vertex="1">
          <mxGeometry x="295" y="225" width="10" height="10" as="geometry" />
        </mxCell>
        <mxCell id="5HyJmKqG2nleEV9b4dT3-306" value="" style="sketch=0;pointerEvents=1;shadow=0;dashed=0;html=1;strokeColor=none;fillColor=#FFFFFF;labelPosition=center;verticalLabelPosition=bottom;verticalAlign=top;outlineConnect=0;align=center;shape=mxgraph.office.concepts.writing_pencil;" parent="5HyJmKqG2nleEV9b4dT3-292" vertex="1">
          <mxGeometry x="565" y="225" width="10" height="10" as="geometry" />
        </mxCell>
        <mxCell id="5HyJmKqG2nleEV9b4dT3-307" value="" style="sketch=0;pointerEvents=1;shadow=0;dashed=0;html=1;strokeColor=none;fillColor=#FFFFFF;labelPosition=center;verticalLabelPosition=bottom;verticalAlign=top;outlineConnect=0;align=center;shape=mxgraph.office.concepts.writing_pencil;" parent="5HyJmKqG2nleEV9b4dT3-292" vertex="1">
          <mxGeometry x="475" y="225" width="10" height="10" as="geometry" />
        </mxCell>
        <mxCell id="5HyJmKqG2nleEV9b4dT3-308" value="" style="sketch=0;pointerEvents=1;shadow=0;dashed=0;html=1;strokeColor=none;fillColor=#FFFFFF;labelPosition=center;verticalLabelPosition=bottom;verticalAlign=top;outlineConnect=0;align=center;shape=mxgraph.office.concepts.writing_pencil;" parent="5HyJmKqG2nleEV9b4dT3-292" vertex="1">
          <mxGeometry x="745" y="225" width="10" height="10" as="geometry" />
        </mxCell>
        <mxCell id="5HyJmKqG2nleEV9b4dT3-309" value="" style="sketch=0;pointerEvents=1;shadow=0;dashed=0;html=1;strokeColor=none;fillColor=#FFFFFF;labelPosition=center;verticalLabelPosition=bottom;verticalAlign=top;outlineConnect=0;align=center;shape=mxgraph.office.concepts.writing_pencil;" parent="5HyJmKqG2nleEV9b4dT3-292" vertex="1">
          <mxGeometry x="655" y="225" width="10" height="10" as="geometry" />
        </mxCell>
        <mxCell id="5HyJmKqG2nleEV9b4dT3-310" value="" style="sketch=0;pointerEvents=1;shadow=0;dashed=0;html=1;strokeColor=none;fillColor=#FFFFFF;labelPosition=center;verticalLabelPosition=bottom;verticalAlign=top;outlineConnect=0;align=center;shape=mxgraph.office.concepts.writing_pencil;" parent="5HyJmKqG2nleEV9b4dT3-292" vertex="1">
          <mxGeometry x="205" y="315" width="10" height="10" as="geometry" />
        </mxCell>
        <mxCell id="5HyJmKqG2nleEV9b4dT3-311" value="" style="sketch=0;pointerEvents=1;shadow=0;dashed=0;html=1;strokeColor=none;fillColor=#FFFFFF;labelPosition=center;verticalLabelPosition=bottom;verticalAlign=top;outlineConnect=0;align=center;shape=mxgraph.office.concepts.writing_pencil;" parent="5HyJmKqG2nleEV9b4dT3-292" vertex="1">
          <mxGeometry x="115" y="315" width="10" height="10" as="geometry" />
        </mxCell>
        <mxCell id="5HyJmKqG2nleEV9b4dT3-312" value="" style="sketch=0;pointerEvents=1;shadow=0;dashed=0;html=1;strokeColor=none;fillColor=#FFFFFF;labelPosition=center;verticalLabelPosition=bottom;verticalAlign=top;outlineConnect=0;align=center;shape=mxgraph.office.concepts.writing_pencil;" parent="5HyJmKqG2nleEV9b4dT3-292" vertex="1">
          <mxGeometry x="385" y="315" width="10" height="10" as="geometry" />
        </mxCell>
        <mxCell id="5HyJmKqG2nleEV9b4dT3-313" value="" style="sketch=0;pointerEvents=1;shadow=0;dashed=0;html=1;strokeColor=none;fillColor=#FFFFFF;labelPosition=center;verticalLabelPosition=bottom;verticalAlign=top;outlineConnect=0;align=center;shape=mxgraph.office.concepts.writing_pencil;" parent="5HyJmKqG2nleEV9b4dT3-292" vertex="1">
          <mxGeometry x="295" y="315" width="10" height="10" as="geometry" />
        </mxCell>
        <mxCell id="5HyJmKqG2nleEV9b4dT3-314" value="" style="sketch=0;pointerEvents=1;shadow=0;dashed=0;html=1;strokeColor=none;fillColor=#FFFFFF;labelPosition=center;verticalLabelPosition=bottom;verticalAlign=top;outlineConnect=0;align=center;shape=mxgraph.office.concepts.writing_pencil;" parent="5HyJmKqG2nleEV9b4dT3-292" vertex="1">
          <mxGeometry x="565" y="315" width="10" height="10" as="geometry" />
        </mxCell>
        <mxCell id="5HyJmKqG2nleEV9b4dT3-315" value="" style="sketch=0;pointerEvents=1;shadow=0;dashed=0;html=1;strokeColor=none;fillColor=#FFFFFF;labelPosition=center;verticalLabelPosition=bottom;verticalAlign=top;outlineConnect=0;align=center;shape=mxgraph.office.concepts.writing_pencil;" parent="5HyJmKqG2nleEV9b4dT3-292" vertex="1">
          <mxGeometry x="475" y="315" width="10" height="10" as="geometry" />
        </mxCell>
        <mxCell id="5HyJmKqG2nleEV9b4dT3-316" value="" style="sketch=0;pointerEvents=1;shadow=0;dashed=0;html=1;strokeColor=none;fillColor=#FFFFFF;labelPosition=center;verticalLabelPosition=bottom;verticalAlign=top;outlineConnect=0;align=center;shape=mxgraph.office.concepts.writing_pencil;" parent="5HyJmKqG2nleEV9b4dT3-292" vertex="1">
          <mxGeometry x="745" y="315" width="10" height="10" as="geometry" />
        </mxCell>
        <mxCell id="5HyJmKqG2nleEV9b4dT3-317" value="" style="sketch=0;pointerEvents=1;shadow=0;dashed=0;html=1;strokeColor=none;fillColor=#FFFFFF;labelPosition=center;verticalLabelPosition=bottom;verticalAlign=top;outlineConnect=0;align=center;shape=mxgraph.office.concepts.writing_pencil;" parent="5HyJmKqG2nleEV9b4dT3-292" vertex="1">
          <mxGeometry x="655" y="315" width="10" height="10" as="geometry" />
        </mxCell>
        <mxCell id="5HyJmKqG2nleEV9b4dT3-318" value="" style="sketch=0;pointerEvents=1;shadow=0;dashed=0;html=1;strokeColor=none;fillColor=#FFFFFF;labelPosition=center;verticalLabelPosition=bottom;verticalAlign=top;outlineConnect=0;align=center;shape=mxgraph.office.concepts.writing_pencil;" parent="5HyJmKqG2nleEV9b4dT3-292" vertex="1">
          <mxGeometry x="205" y="405" width="10" height="10" as="geometry" />
        </mxCell>
        <mxCell id="5HyJmKqG2nleEV9b4dT3-319" value="" style="sketch=0;pointerEvents=1;shadow=0;dashed=0;html=1;strokeColor=none;fillColor=#FFFFFF;labelPosition=center;verticalLabelPosition=bottom;verticalAlign=top;outlineConnect=0;align=center;shape=mxgraph.office.concepts.writing_pencil;" parent="5HyJmKqG2nleEV9b4dT3-292" vertex="1">
          <mxGeometry x="115" y="405" width="10" height="10" as="geometry" />
        </mxCell>
        <mxCell id="5HyJmKqG2nleEV9b4dT3-320" value="" style="sketch=0;pointerEvents=1;shadow=0;dashed=0;html=1;strokeColor=none;fillColor=#FFFFFF;labelPosition=center;verticalLabelPosition=bottom;verticalAlign=top;outlineConnect=0;align=center;shape=mxgraph.office.concepts.writing_pencil;" parent="5HyJmKqG2nleEV9b4dT3-292" vertex="1">
          <mxGeometry x="385" y="405" width="10" height="10" as="geometry" />
        </mxCell>
        <mxCell id="5HyJmKqG2nleEV9b4dT3-321" value="" style="sketch=0;pointerEvents=1;shadow=0;dashed=0;html=1;strokeColor=none;fillColor=#FFFFFF;labelPosition=center;verticalLabelPosition=bottom;verticalAlign=top;outlineConnect=0;align=center;shape=mxgraph.office.concepts.writing_pencil;" parent="5HyJmKqG2nleEV9b4dT3-292" vertex="1">
          <mxGeometry x="295" y="405" width="10" height="10" as="geometry" />
        </mxCell>
        <mxCell id="5HyJmKqG2nleEV9b4dT3-322" value="" style="sketch=0;pointerEvents=1;shadow=0;dashed=0;html=1;strokeColor=none;fillColor=#FFFFFF;labelPosition=center;verticalLabelPosition=bottom;verticalAlign=top;outlineConnect=0;align=center;shape=mxgraph.office.concepts.writing_pencil;" parent="5HyJmKqG2nleEV9b4dT3-292" vertex="1">
          <mxGeometry x="565" y="405" width="10" height="10" as="geometry" />
        </mxCell>
        <mxCell id="5HyJmKqG2nleEV9b4dT3-323" value="" style="sketch=0;pointerEvents=1;shadow=0;dashed=0;html=1;strokeColor=none;fillColor=#FFFFFF;labelPosition=center;verticalLabelPosition=bottom;verticalAlign=top;outlineConnect=0;align=center;shape=mxgraph.office.concepts.writing_pencil;" parent="5HyJmKqG2nleEV9b4dT3-292" vertex="1">
          <mxGeometry x="475" y="405" width="10" height="10" as="geometry" />
        </mxCell>
        <mxCell id="5HyJmKqG2nleEV9b4dT3-324" value="" style="sketch=0;pointerEvents=1;shadow=0;dashed=0;html=1;strokeColor=none;fillColor=#FFFFFF;labelPosition=center;verticalLabelPosition=bottom;verticalAlign=top;outlineConnect=0;align=center;shape=mxgraph.office.concepts.writing_pencil;" parent="5HyJmKqG2nleEV9b4dT3-292" vertex="1">
          <mxGeometry x="745" y="405" width="10" height="10" as="geometry" />
        </mxCell>
        <mxCell id="5HyJmKqG2nleEV9b4dT3-325" value="" style="sketch=0;pointerEvents=1;shadow=0;dashed=0;html=1;strokeColor=none;fillColor=#FFFFFF;labelPosition=center;verticalLabelPosition=bottom;verticalAlign=top;outlineConnect=0;align=center;shape=mxgraph.office.concepts.writing_pencil;" parent="5HyJmKqG2nleEV9b4dT3-292" vertex="1">
          <mxGeometry x="655" y="405" width="10" height="10" as="geometry" />
        </mxCell>
        <mxCell id="5HyJmKqG2nleEV9b4dT3-333" value="Input" style="rounded=0;whiteSpace=wrap;html=1;fillColor=#C2C2C2;" parent="5HyJmKqG2nleEV9b4dT3-292" vertex="1">
          <mxGeometry x="120" y="70" width="80" height="30" as="geometry" />
        </mxCell>
        <mxCell id="5HyJmKqG2nleEV9b4dT3-334" value="Connectors" style="rounded=0;whiteSpace=wrap;html=1;" parent="5HyJmKqG2nleEV9b4dT3-292" vertex="1">
          <mxGeometry x="40" y="70" width="80" height="30" as="geometry" />
        </mxCell>
        <mxCell id="5HyJmKqG2nleEV9b4dT3-335" value="Mixbus" style="rounded=0;whiteSpace=wrap;html=1;" parent="5HyJmKqG2nleEV9b4dT3-292" vertex="1">
          <mxGeometry x="280" y="70" width="80" height="30" as="geometry" />
        </mxCell>
        <mxCell id="5HyJmKqG2nleEV9b4dT3-336" value="Matrix" style="rounded=0;whiteSpace=wrap;html=1;" parent="5HyJmKqG2nleEV9b4dT3-292" vertex="1">
          <mxGeometry x="360" y="70" width="80" height="30" as="geometry" />
        </mxCell>
        <mxCell id="5HyJmKqG2nleEV9b4dT3-337" value="Stereo" style="rounded=0;whiteSpace=wrap;html=1;" parent="5HyJmKqG2nleEV9b4dT3-292" vertex="1">
          <mxGeometry x="440" y="70" width="80" height="30" as="geometry" />
        </mxCell>
      </root>
    </mxGraphModel>
  </diagram>
</mxfile>
